<svg xmlns="http://www.w3.org/2000/svg" width="26" height="26" viewBox="0 0 26 26" fill="none">
<g clip-path="url(#clip0_513_239)">
<path d="M13.0625 25.5C14.7871 25.5 16.186 24.1011 16.186 22.375H9.93894C9.93894 24.1011 11.3379 25.5 13.0625 25.5ZM23.5796 18.1899C22.6362 17.1763 20.8711 15.6514 20.8711 10.6562C20.8711 6.8623 18.2109 3.8252 14.624 3.08008V2.0625C14.624 1.19971 13.9248 0.5 13.0625 0.5C12.2002 0.5 11.5009 1.19971 11.5009 2.0625V3.08008C7.91404 3.8252 5.25388 6.8623 5.25388 10.6562C5.25388 15.6514 3.48874 17.1763 2.54538 18.1899C2.25241 18.5049 2.12253 18.8813 2.12497 19.25C2.13034 20.0508 2.75876 20.8125 3.69236 20.8125H22.4326C23.3662 20.8125 23.9951 20.0508 24 19.25C24.0024 18.8813 23.8725 18.5044 23.5796 18.1899Z" fill="#1D218B"/>
</g>
<defs>
<clipPath id="clip0_513_239">
<rect width="25.8751" height="25" fill="white" transform="translate(0.124939 0.5)"/>
</clipPath>
</defs>
</svg>