<svg xmlns="http://www.w3.org/2000/svg" width="100" height="100" viewBox="0 0 100 100" fill="none">
<rect width="100" height="100" fill="#1D218B"/>
<path d="M50 31.25C58.6328 31.25 65.625 24.2578 65.625 15.625C65.625 6.99219 58.6328 0 50 0C41.3672 0 34.375 6.99219 34.375 15.625C34.375 24.2578 41.3672 31.25 50 31.25ZM39.5703 79.8438L44.5703 73.5938L32.5586 63.5938L23.5937 74.8047C21.3672 77.5781 21.3086 81.5234 23.4375 84.375L32.8125 96.875C34.3555 98.9258 36.6992 100 39.0625 100C40.6836 100 42.3437 99.4922 43.75 98.4375C47.207 95.8594 47.8906 90.957 45.3125 87.5L39.5703 79.8438ZM67.4414 63.5938L55.4297 73.5938L60.4297 79.8438L54.6875 87.5C52.1094 90.957 52.793 95.8594 56.25 98.4375C57.6562 99.4922 59.2969 100 60.9375 100C63.3203 100 65.6641 98.9258 67.1875 96.875L76.5625 84.375C78.6914 81.5234 78.6328 77.5781 76.4063 74.8047L67.4414 63.5938ZM86.0742 28.3203C83.5937 24.7852 78.7305 23.9453 75.1953 26.4062L67.2656 31.9727C56.9727 39.1992 43.0078 39.1992 32.7344 31.9727L24.8047 26.4258C21.2695 23.9453 16.4063 24.8047 13.9258 28.3203C11.4453 31.8555 12.3047 36.7188 15.8203 39.1992L23.75 44.7656C27.0703 47.0898 30.6641 48.8477 34.375 50.2148V56.25H65.625V50.2344C69.3359 48.8672 72.9297 47.1094 76.25 44.7852L84.1797 39.2188C87.7148 36.7188 88.5547 31.8555 86.0742 28.3203Z" fill="white"/>
</svg>