<svg xmlns="http://www.w3.org/2000/svg" width="26" height="26" viewBox="0 0 26 26" fill="none">
<path d="M15.9092 13.3652L20.7954 8.479C21.395 7.87939 21.395 6.90723 20.7954 6.30713L19.7095 5.22119C19.1099 4.62158 18.1377 4.62158 17.5376 5.22119L12.6514 10.1074L7.76514 5.22119C7.16553 4.62158 6.19336 4.62158 5.59326 5.22119L4.50732 6.30713C3.90771 6.90674 3.90771 7.87891 4.50732 8.479L9.39355 13.3652L4.50732 18.2515C3.90771 18.8511 3.90771 19.8232 4.50732 20.4233L5.59326 21.5093C6.19287 22.1089 7.16553 22.1089 7.76514 21.5093L12.6514 16.623L17.5376 21.5093C18.1372 22.1089 19.1099 22.1089 19.7095 21.5093L20.7954 20.4233C21.395 19.8237 21.395 18.8516 20.7954 18.2515L15.9092 13.3652Z" fill="#1D218B"/>
</svg>