<svg xmlns="http://www.w3.org/2000/svg" width="183" height="142" viewBox="0 0 183 142" fill="none">
<g clip-path="url(#clip0_515_274)">
<path d="M139.537 56.8003H96.075V69.2253C96.075 78.0337 86.8392 85.2003 75.4875 85.2003C64.1358 85.2003 54.9 78.0337 54.9 69.2253V42.2453L36.3426 50.8984C30.8241 53.45 27.45 58.0872 27.45 63.0572V73.5518L4.57499 83.8025C0.200147 85.755 -1.31532 90.1037 1.22952 93.4984L24.1045 124.25C26.6208 127.645 32.2252 128.799 36.6 126.846L66.1659 113.6H105.225C115.319 113.6 123.525 107.232 123.525 99.4003H128.1C133.161 99.4003 137.25 96.2275 137.25 92.3003V78.1003H139.537C143.34 78.1003 146.4 75.7262 146.4 72.7753V62.1253C146.4 59.1743 143.34 56.8003 139.537 56.8003ZM181.77 48.5022L158.895 17.7503C156.379 14.3556 150.775 13.2018 146.4 15.1543L116.834 28.4003H87.6112C84.18 28.4003 80.8345 29.1547 77.918 30.5525L68.3391 35.1897C65.6512 36.4765 64.05 38.7618 64.05 41.2025V69.2253C64.05 74.1287 69.1683 78.1003 75.4875 78.1003C81.8067 78.1003 86.925 74.1287 86.925 69.2253V49.7003H139.537C148.373 49.7003 155.55 55.2693 155.55 62.1253V68.4487L178.425 58.1981C182.8 56.2234 184.287 51.8968 181.77 48.5022Z" fill="white"/>
</g>
<defs>
<clipPath id="clip0_515_274">
<rect width="183" height="142" fill="white"/>
</clipPath>
</defs>
</svg>