<svg xmlns="http://www.w3.org/2000/svg" width="25" height="25" viewBox="0 0 25 25" fill="none">
<path d="M24.5264 9.19141C24.7168 9.04004 25 9.18164 25 9.4209V19.4062C25 20.7002 23.9502 21.75 22.6562 21.75H2.34375C1.0498 21.75 0 20.7002 0 19.4062V9.42578C0 9.18164 0.27832 9.04492 0.473633 9.19629C1.56738 10.0459 3.01758 11.125 7.99805 14.7432C9.02832 15.4951 10.7666 17.0771 12.5 17.0674C14.2432 17.082 16.0156 15.4658 17.0068 14.7432C21.9873 11.125 23.4326 10.041 24.5264 9.19141ZM12.5 15.5C13.6328 15.5195 15.2637 14.0742 16.084 13.4785C22.5635 8.77637 23.0566 8.36621 24.5508 7.19434C24.834 6.97461 25 6.63281 25 6.27148V5.34375C25 4.0498 23.9502 3 22.6562 3H2.34375C1.0498 3 0 4.0498 0 5.34375V6.27148C0 6.63281 0.166016 6.96973 0.449219 7.19434C1.94336 8.36133 2.43652 8.77637 8.91602 13.4785C9.73633 14.0742 11.3672 15.5195 12.5 15.5Z" fill="#1D218B"/>
</svg>