<svg xmlns="http://www.w3.org/2000/svg" width="116" height="21" viewBox="0 0 116 21" fill="none">
<path d="M12.9268 8.95508V12.1543H3.35449V8.95508H12.9268ZM4.66211 1.51562V20H0.523438L0.523438 1.51562H4.66211ZM15.7832 1.51562V20H11.6572V1.51562H15.7832ZM25.9268 16.7246V10.834C25.9268 10.4193 25.8633 10.0638 25.7363 9.76758C25.6094 9.47135 25.4105 9.23861 25.1396 9.06934C24.8688 8.90007 24.5176 8.81543 24.0859 8.81543C23.722 8.81543 23.4046 8.87891 23.1338 9.00586C22.8714 9.13281 22.6683 9.31478 22.5244 9.55176C22.389 9.78874 22.3213 10.0807 22.3213 10.4277H18.3604C18.3604 9.8099 18.5 9.23438 18.7793 8.70117C19.0586 8.16797 19.4564 7.69824 19.9727 7.29199C20.4974 6.88574 21.1237 6.57259 21.8516 6.35254C22.5794 6.12402 23.3962 6.00977 24.3018 6.00977C25.3766 6.00977 26.333 6.19173 27.1709 6.55566C28.0173 6.91113 28.6859 7.44857 29.1768 8.16797C29.6676 8.87891 29.9131 9.77604 29.9131 10.8594V16.6104C29.9131 17.4398 29.9596 18.0915 30.0527 18.5654C30.1543 19.0309 30.2982 19.4372 30.4844 19.7842V20H26.4854C26.2992 19.6022 26.1595 19.1113 26.0664 18.5273C25.9733 17.9349 25.9268 17.334 25.9268 16.7246ZM26.4219 11.6211L26.4473 13.8047H24.4795C24.0394 13.8047 23.6585 13.8597 23.3369 13.9697C23.0238 14.0798 22.7699 14.2321 22.5752 14.4268C22.3805 14.613 22.2367 14.833 22.1436 15.0869C22.0589 15.3324 22.0166 15.6032 22.0166 15.8994C22.0166 16.1787 22.0843 16.4326 22.2197 16.6611C22.3551 16.8812 22.5413 17.0547 22.7783 17.1816C23.0153 17.3086 23.2904 17.3721 23.6035 17.3721C24.1198 17.3721 24.5599 17.2705 24.9238 17.0674C25.2962 16.8643 25.584 16.6188 25.7871 16.3311C25.9902 16.0348 26.0918 15.7598 26.0918 15.5059L27.0439 17.1562C26.8916 17.4948 26.7054 17.846 26.4854 18.21C26.2653 18.5654 25.986 18.8997 25.6475 19.2129C25.3089 19.5176 24.8984 19.7673 24.416 19.9619C23.9421 20.1566 23.3708 20.2539 22.7021 20.2539C21.8389 20.2539 21.056 20.0804 20.3535 19.7334C19.651 19.3779 19.0882 18.8913 18.665 18.2734C18.2503 17.6556 18.043 16.9447 18.043 16.1406C18.043 15.4212 18.1742 14.7822 18.4365 14.2236C18.6989 13.665 19.0924 13.1911 19.6172 12.8018C20.1504 12.4124 20.819 12.1204 21.623 11.9258C22.4271 11.7227 23.3665 11.6211 24.4414 11.6211H26.4219ZM36.4004 9.19629V20H32.4268V6.26367H36.1592L36.4004 9.19629ZM35.8799 12.6494L34.8896 12.6748C34.8896 11.6423 35.0166 10.7155 35.2705 9.89453C35.5244 9.07357 35.8841 8.37533 36.3496 7.7998C36.8236 7.21582 37.3864 6.77148 38.0381 6.4668C38.6982 6.16211 39.4261 6.00977 40.2217 6.00977C40.8649 6.00977 41.4531 6.10286 41.9863 6.28906C42.5195 6.47526 42.9766 6.77572 43.3574 7.19043C43.7467 7.59668 44.043 8.13835 44.2461 8.81543C44.4492 9.48405 44.5508 10.3092 44.5508 11.291V20H40.5645V11.2783C40.5645 10.7028 40.484 10.2585 40.3232 9.94531C40.1624 9.63216 39.9255 9.41211 39.6123 9.28516C39.3076 9.1582 38.9352 9.09473 38.4951 9.09473C38.0296 9.09473 37.6318 9.18783 37.3018 9.37402C36.9717 9.55176 36.7008 9.80143 36.4893 10.123C36.2777 10.4447 36.1211 10.8213 36.0195 11.2529C35.9264 11.6846 35.8799 12.1501 35.8799 12.6494ZM55.1387 16.9277V0.5H59.125V20H55.5449L55.1387 16.9277ZM46.582 13.2969V13.0303C46.582 11.9893 46.6963 11.0413 46.9248 10.1865C47.1618 9.32324 47.5046 8.58268 47.9531 7.96484C48.4102 7.33854 48.973 6.85612 49.6416 6.51758C50.3102 6.17904 51.0762 6.00977 51.9395 6.00977C52.735 6.00977 53.429 6.1875 54.0215 6.54297C54.6139 6.88997 55.1175 7.38086 55.5322 8.01562C55.9554 8.64193 56.2982 9.38249 56.5605 10.2373C56.8229 11.0837 57.0218 12.002 57.1572 12.9922V13.4492C57.0303 14.3971 56.8314 15.2816 56.5605 16.1025C56.2982 16.9235 55.9554 17.6471 55.5322 18.2734C55.1175 18.8913 54.6097 19.3779 54.0088 19.7334C53.4163 20.0804 52.7181 20.2539 51.9141 20.2539C51.0508 20.2539 50.2848 20.0804 49.6162 19.7334C48.9561 19.3864 48.4017 18.8997 47.9531 18.2734C47.5046 17.6471 47.1618 16.9108 46.9248 16.0645C46.6963 15.2181 46.582 14.2956 46.582 13.2969ZM50.543 13.0303V13.2969C50.543 13.8385 50.5811 14.3421 50.6572 14.8076C50.7419 15.2731 50.8773 15.6836 51.0635 16.0391C51.2497 16.3945 51.4951 16.6738 51.7998 16.877C52.1045 17.0716 52.4769 17.1689 52.917 17.1689C53.5094 17.1689 53.9961 17.0335 54.377 16.7627C54.7578 16.4834 55.0456 16.0983 55.2402 15.6074C55.4349 15.1165 55.5365 14.5452 55.5449 13.8936V12.5605C55.5449 12.0189 55.4899 11.5322 55.3799 11.1006C55.2699 10.6689 55.1048 10.305 54.8848 10.0088C54.6732 9.71257 54.4066 9.48828 54.085 9.33594C53.7633 9.17513 53.3825 9.09473 52.9424 9.09473C52.5107 9.09473 52.1426 9.19629 51.8379 9.39941C51.5332 9.59408 51.2835 9.86914 51.0889 10.2246C50.9027 10.5801 50.763 10.999 50.6699 11.4814C50.5853 11.9554 50.543 12.4717 50.543 13.0303ZM77.3809 10.3516V11.1768C77.3809 12.5817 77.1862 13.8428 76.7969 14.96C76.416 16.0771 75.8701 17.0293 75.1592 17.8164C74.4567 18.6035 73.6188 19.2087 72.6455 19.6318C71.6807 20.0465 70.61 20.2539 69.4336 20.2539C68.2572 20.2539 67.1823 20.0465 66.209 19.6318C65.2357 19.2087 64.3893 18.6035 63.6699 17.8164C62.959 17.0293 62.4089 16.0771 62.0195 14.96C61.6302 13.8428 61.4355 12.5817 61.4355 11.1768V10.3516C61.4355 8.94661 61.6302 7.68555 62.0195 6.56836C62.4089 5.44271 62.9548 4.48633 63.6572 3.69922C64.3682 2.91211 65.2103 2.3112 66.1836 1.89648C67.1569 1.47331 68.2318 1.26172 69.4082 1.26172C70.5846 1.26172 71.6595 1.47331 72.6328 1.89648C73.6061 2.3112 74.444 2.91211 75.1465 3.69922C75.8574 4.48633 76.4076 5.44271 76.7969 6.56836C77.1862 7.68555 77.3809 8.94661 77.3809 10.3516ZM73.2041 11.1768V10.3262C73.2041 9.38672 73.1195 8.55729 72.9502 7.83789C72.7809 7.11003 72.5355 6.50065 72.2139 6.00977C71.8923 5.51888 71.4945 5.15072 71.0205 4.90527C70.5465 4.65137 70.0091 4.52441 69.4082 4.52441C68.7819 4.52441 68.236 4.65137 67.7705 4.90527C67.305 5.15072 66.9115 5.51888 66.5898 6.00977C66.2767 6.50065 66.0355 7.11003 65.8662 7.83789C65.7054 8.55729 65.625 9.38672 65.625 10.3262V11.1768C65.625 12.1077 65.7054 12.9372 65.8662 13.665C66.0355 14.3844 66.2809 14.9938 66.6025 15.4932C66.9242 15.9925 67.3177 16.3691 67.7832 16.623C68.2572 16.877 68.8073 17.0039 69.4336 17.0039C70.0345 17.0039 70.5677 16.877 71.0332 16.623C71.5072 16.3691 71.9049 15.9925 72.2266 15.4932C72.5482 14.9938 72.7894 14.3844 72.9502 13.665C73.1195 12.9372 73.2041 12.1077 73.2041 11.1768ZM84.5283 17.1943L87.3975 6.26367H91.5615L87.0039 20H84.5029L84.5283 17.1943ZM82.6748 6.26367L85.5312 17.207L85.5566 20H83.0557L78.498 6.26367H82.6748ZM99.3184 20.2539C98.2266 20.2539 97.249 20.0804 96.3857 19.7334C95.5225 19.3864 94.7904 18.9082 94.1895 18.2988C93.597 17.681 93.1442 16.9701 92.8311 16.166C92.5179 15.362 92.3613 14.5029 92.3613 13.5889V13.1064C92.3613 12.0824 92.5052 11.1387 92.793 10.2754C93.0807 9.41211 93.4997 8.66309 94.0498 8.02832C94.6084 7.38509 95.2939 6.88997 96.1064 6.54297C96.9189 6.1875 97.8457 6.00977 98.8867 6.00977C99.86 6.00977 100.728 6.17057 101.489 6.49219C102.251 6.80534 102.894 7.25814 103.419 7.85059C103.944 8.43457 104.341 9.14128 104.612 9.9707C104.892 10.7917 105.031 11.7142 105.031 12.7383V14.3633H93.9609V11.8115H101.146V11.5068C101.146 11.0244 101.058 10.6012 100.88 10.2373C100.711 9.87337 100.457 9.59408 100.118 9.39941C99.7881 9.19629 99.3691 9.09473 98.8613 9.09473C98.3789 9.09473 97.9769 9.19629 97.6553 9.39941C97.3337 9.60254 97.0755 9.8903 96.8809 10.2627C96.6947 10.6266 96.5592 11.054 96.4746 11.5449C96.39 12.0273 96.3477 12.5479 96.3477 13.1064V13.5889C96.3477 14.1221 96.4196 14.6087 96.5635 15.0488C96.7074 15.4889 96.9189 15.8656 97.1982 16.1787C97.4775 16.4919 97.8161 16.7373 98.2139 16.915C98.6117 17.0928 99.0645 17.1816 99.5723 17.1816C100.199 17.1816 100.795 17.0632 101.362 16.8262C101.929 16.5807 102.42 16.1999 102.835 15.6836L104.688 17.8037C104.409 18.21 104.016 18.6035 103.508 18.9844C103.008 19.3568 102.408 19.6615 101.705 19.8984C101.003 20.1354 100.207 20.2539 99.3184 20.2539ZM110.935 9.46289V20H106.974V6.26367H110.693L110.935 9.46289ZM115.035 6.16211L114.972 9.85645C114.802 9.83105 114.582 9.8099 114.312 9.79297C114.041 9.76758 113.808 9.75488 113.613 9.75488C113.105 9.75488 112.665 9.81836 112.293 9.94531C111.929 10.0638 111.624 10.2415 111.379 10.4785C111.142 10.7155 110.964 11.0117 110.846 11.3672C110.727 11.7142 110.668 12.1162 110.668 12.5732L109.919 12.2051C109.919 11.2995 110.008 10.4701 110.186 9.7168C110.363 8.96354 110.621 8.31185 110.96 7.76172C111.299 7.20312 111.713 6.77148 112.204 6.4668C112.695 6.16211 113.254 6.00977 113.88 6.00977C114.083 6.00977 114.29 6.02246 114.502 6.04785C114.714 6.07324 114.891 6.11133 115.035 6.16211Z" fill="#1D218B"/>
<path d="M12.9268 8.95508H13.9268V7.95508H12.9268V8.95508ZM12.9268 12.1543V13.1543H13.9268V12.1543H12.9268ZM3.35449 12.1543H2.35449V13.1543H3.35449V12.1543ZM3.35449 8.95508V7.95508H2.35449V8.95508H3.35449ZM4.66211 1.51562H5.66211V0.515625H4.66211V1.51562ZM4.66211 20V21H5.66211V20H4.66211ZM0.523438 20H-0.476562V21H0.523438V20ZM0.523438 1.51562V0.515625H-0.476562V1.51562H0.523438ZM15.7832 1.51562H16.7832V0.515625H15.7832V1.51562ZM15.7832 20V21H16.7832V20H15.7832ZM11.6572 20H10.6572V21H11.6572V20ZM11.6572 1.51562V0.515625H10.6572V1.51562H11.6572ZM11.9268 8.95508V12.1543H13.9268V8.95508H11.9268ZM12.9268 11.1543H3.35449V13.1543H12.9268V11.1543ZM4.35449 12.1543V8.95508H2.35449V12.1543H4.35449ZM3.35449 9.95508H12.9268V7.95508H3.35449V9.95508ZM3.66211 1.51562V20H5.66211V1.51562H3.66211ZM4.66211 19H0.523438V21H4.66211V19ZM1.52344 20V1.51562H-0.476562L-0.476562 20H1.52344ZM0.523438 2.51562H4.66211V0.515625H0.523438V2.51562ZM14.7832 1.51562V20H16.7832V1.51562H14.7832ZM15.7832 19H11.6572V21H15.7832V19ZM12.6572 20V1.51562H10.6572V20H12.6572ZM11.6572 2.51562H15.7832V0.515625H11.6572V2.51562ZM23.1338 9.00586L22.7093 8.10033L22.6982 8.1057L23.1338 9.00586ZM22.5244 9.55176L21.6696 9.03278L21.6627 9.04411L21.6562 9.05562L22.5244 9.55176ZM22.3213 10.4277V11.4277H23.3213V10.4277H22.3213ZM18.3604 10.4277H17.3604V11.4277H18.3604V10.4277ZM19.9727 7.29199L19.3605 6.50124L19.3543 6.50612L19.9727 7.29199ZM21.8516 6.35254L22.141 7.3098L22.1511 7.30662L21.8516 6.35254ZM27.1709 6.55566L26.7725 7.47295L26.7837 7.47765L27.1709 6.55566ZM29.1768 8.16797L28.3507 8.73162L28.3539 8.73616L29.1768 8.16797ZM30.0527 18.5654L29.0715 18.7582L29.0735 18.7684L29.0757 18.7786L30.0527 18.5654ZM30.4844 19.7842H31.4844V19.5328L31.3655 19.3114L30.4844 19.7842ZM30.4844 20V21H31.4844V20H30.4844ZM26.4854 20L25.5797 20.4239L25.8493 21H26.4854V20ZM26.0664 18.5273L25.0785 18.6826L25.0789 18.6848L26.0664 18.5273ZM26.4219 11.6211L27.4218 11.6095L27.4103 10.6211H26.4219V11.6211ZM26.4473 13.8047V14.8047H27.459L27.4472 13.7931L26.4473 13.8047ZM23.3369 13.9697L23.0132 13.0235L23.0054 13.0263L23.3369 13.9697ZM22.5752 14.4268L23.2664 15.1494L23.2744 15.1417L23.2823 15.1339L22.5752 14.4268ZM22.1436 15.0869L21.2047 14.7427L21.2013 14.7518L21.1982 14.7609L22.1436 15.0869ZM22.2197 16.6611L21.3594 17.1709L21.3637 17.1781L21.3681 17.1852L22.2197 16.6611ZM24.9238 17.0674L24.445 16.1894L24.4365 16.1942L24.9238 17.0674ZM25.7871 16.3311L26.6042 16.9078L26.6118 16.8966L25.7871 16.3311ZM26.0918 15.5059L26.958 15.0061L25.0918 11.7714V15.5059H26.0918ZM27.0439 17.1562L27.9559 17.5666L28.1659 17.0999L27.9101 16.6565L27.0439 17.1562ZM26.4854 18.21L27.3357 18.7363L27.3411 18.7274L26.4854 18.21ZM25.6475 19.2129L26.3165 19.9563L26.3265 19.947L25.6475 19.2129ZM24.416 19.9619L24.0418 19.0345L24.0361 19.0369L24.416 19.9619ZM20.3535 19.7334L19.902 20.6257L19.9106 20.63L20.3535 19.7334ZM18.665 18.2734L17.8347 18.8308L17.84 18.8385L18.665 18.2734ZM19.6172 12.8018L19.0275 11.9941L19.0213 11.9987L19.6172 12.8018ZM21.623 11.9258L21.8584 12.8978L21.868 12.8953L21.623 11.9258ZM26.9268 16.7246V10.834H24.9268V16.7246H26.9268ZM26.9268 10.834C26.9268 10.3211 26.8487 9.82454 26.6555 9.37366L24.8172 10.1615C24.8779 10.3031 24.9268 10.5175 24.9268 10.834H26.9268ZM26.6555 9.37366C26.4489 8.89175 26.1152 8.49978 25.6696 8.22134L24.6096 9.91733C24.7058 9.97744 24.7698 10.051 24.8172 10.1615L26.6555 9.37366ZM25.6696 8.22134C25.1933 7.9236 24.6411 7.81543 24.0859 7.81543V9.81543C24.394 9.81543 24.5444 9.87653 24.6096 9.91733L25.6696 8.22134ZM24.0859 7.81543C23.6065 7.81543 23.1386 7.89918 22.7094 8.1004L23.5582 9.91132C23.6706 9.85863 23.8375 9.81543 24.0859 9.81543V7.81543ZM22.6982 8.1057C22.2717 8.31211 21.9188 8.6223 21.6696 9.03278L23.3792 10.0707C23.4177 10.0073 23.4712 9.95352 23.5693 9.90602L22.6982 8.1057ZM21.6562 9.05562C21.414 9.47941 21.3213 9.95306 21.3213 10.4277H23.3213C23.3213 10.2084 23.364 10.0981 23.3927 10.0479L21.6562 9.05562ZM22.3213 9.42773H18.3604V11.4277H22.3213V9.42773ZM19.3604 10.4277C19.3604 9.96708 19.4629 9.55133 19.6651 9.16518L17.8935 8.23716C17.5371 8.91742 17.3604 9.65271 17.3604 10.4277H19.3604ZM19.6651 9.16518C19.8732 8.76797 20.1754 8.40495 20.591 8.07786L19.3543 6.50612C18.7374 6.99154 18.244 7.56796 17.8935 8.23716L19.6651 9.16518ZM20.5848 8.08272C21 7.76126 21.5131 7.49957 22.141 7.30975L21.5622 5.39533C20.7343 5.64562 19.9948 6.01022 19.3605 6.50127L20.5848 8.08272ZM22.1511 7.30662C22.7659 7.11361 23.4793 7.00977 24.3018 7.00977V5.00977C23.313 5.00977 22.393 5.13444 21.552 5.39845L22.1511 7.30662ZM24.3018 7.00977C25.2635 7.00977 26.0805 7.17233 26.7725 7.47288L27.5693 5.63845C26.5855 5.21113 25.4898 5.00977 24.3018 5.00977V7.00977ZM26.7837 7.47765C27.4624 7.7627 27.9745 8.18026 28.3507 8.73161L30.0028 7.60433C29.3972 6.71688 28.5721 6.05957 27.5581 5.63368L26.7837 7.47765ZM28.3539 8.73616C28.7031 9.242 28.9131 9.92725 28.9131 10.8594H30.9131C30.9131 9.62483 30.6322 8.51581 29.9997 7.59978L28.3539 8.73616ZM28.9131 10.8594V16.6104H30.9131V10.8594H28.9131ZM28.9131 16.6104C28.9131 17.4656 28.9602 18.1914 29.0715 18.7582L31.034 18.3727C30.9591 17.9915 30.9131 17.414 30.9131 16.6104H28.9131ZM29.0757 18.7786C29.1931 19.3164 29.3651 19.8133 29.6032 20.257L31.3655 19.3114C31.2312 19.061 31.1155 18.7455 31.0298 18.3523L29.0757 18.7786ZM29.4844 19.7842V20H31.4844V19.7842H29.4844ZM30.4844 19H26.4854V21H30.4844V19ZM27.391 19.5761C27.2554 19.2863 27.1371 18.8913 27.0539 18.3699L25.0789 18.6848C25.1819 19.3313 25.3429 19.9181 25.5797 20.4239L27.391 19.5761ZM27.0543 18.3721C26.9694 17.8318 26.9268 17.2828 26.9268 16.7246H24.9268C24.9268 17.3851 24.9772 18.038 25.0785 18.6826L27.0543 18.3721ZM25.4219 11.6327L25.4473 13.8163L27.4472 13.7931L27.4218 11.6095L25.4219 11.6327ZM26.4473 12.8047H24.4795V14.8047H26.4473V12.8047ZM24.4795 12.8047C23.96 12.8047 23.4646 12.8691 23.0132 13.0236L23.6606 14.9159C23.8525 14.8503 24.1188 14.8047 24.4795 14.8047V12.8047ZM23.0054 13.0263C22.5796 13.1759 22.1882 13.3995 21.8681 13.7197L23.2823 15.1339C23.3515 15.0647 23.4679 14.9836 23.6684 14.9132L23.0054 13.0263ZM21.884 13.7041C21.5785 13.9963 21.3501 14.346 21.2047 14.7427L23.0824 15.4312C23.1232 15.3201 23.1826 15.2296 23.2664 15.1494L21.884 13.7041ZM21.1982 14.7609C21.0727 15.1249 21.0166 15.5077 21.0166 15.8994H23.0166C23.0166 15.6987 23.0452 15.5398 23.0889 15.4129L21.1982 14.7609ZM21.0166 15.8994C21.0166 16.3485 21.1278 16.78 21.3594 17.1709L23.08 16.1513C23.0408 16.0852 23.0166 16.0089 23.0166 15.8994H21.0166ZM21.3681 17.1852C21.6 17.5621 21.9199 17.8562 22.3061 18.0631L23.2505 16.3002C23.1628 16.2532 23.1103 16.2003 23.0714 16.137L21.3681 17.1852ZM22.3061 18.0631C22.7106 18.2798 23.1529 18.3721 23.6035 18.3721V16.3721C23.4279 16.3721 23.32 16.3374 23.2505 16.3002L22.3061 18.0631ZM23.6035 18.3721C24.2502 18.3721 24.8667 18.2445 25.4112 17.9406L24.4365 16.1942C24.2531 16.2965 23.9894 16.3721 23.6035 16.3721V18.3721ZM25.4027 17.9453C25.8822 17.6837 26.2965 17.3434 26.6041 16.9077L24.9701 15.7544C24.8714 15.8942 24.7102 16.0448 24.445 16.1895L25.4027 17.9453ZM26.6118 16.8966C26.8836 16.5003 27.0918 16.0295 27.0918 15.5059H25.0918C25.0918 15.4901 25.0969 15.5694 24.9624 15.7655L26.6118 16.8966ZM25.2256 16.0056L26.1778 17.656L27.9101 16.6565L26.958 15.0061L25.2256 16.0056ZM26.132 16.7459C25.9984 17.0428 25.8317 17.3583 25.6296 17.6925L27.3411 18.7274C27.5791 18.3338 27.7848 17.9468 27.9559 17.5666L26.132 16.7459ZM25.6351 17.6836C25.4671 17.955 25.2475 18.2206 24.9684 18.4788L26.3265 19.947C26.7245 19.5789 27.0635 19.1759 27.3356 18.7363L25.6351 17.6836ZM24.9785 18.4696C24.7381 18.6859 24.4312 18.8775 24.0418 19.0346L24.7902 20.8893C25.3657 20.6571 25.8797 20.3492 26.3164 19.9562L24.9785 18.4696ZM24.0361 19.0369C23.7133 19.1695 23.2783 19.2539 22.7021 19.2539V21.2539C23.4633 21.2539 24.1708 21.1437 24.7959 20.8869L24.0361 19.0369ZM22.7021 19.2539C21.9766 19.2539 21.3476 19.1091 20.7964 18.8368L19.9106 20.63C20.7644 21.0517 21.7011 21.2539 22.7021 21.2539V19.2539ZM20.805 18.8411C20.2446 18.5576 19.8133 18.1803 19.4901 17.7083L17.84 18.8385C18.3631 19.6023 19.0575 20.1983 19.902 20.6257L20.805 18.8411ZM19.4953 17.7161C19.2002 17.2765 19.043 16.7629 19.043 16.1406H17.043C17.043 17.1264 17.3004 18.0347 17.8347 18.8308L19.4953 17.7161ZM19.043 16.1406C19.043 15.544 19.1513 15.054 19.3417 14.6488L17.5314 13.7985C17.197 14.5104 17.043 15.2985 17.043 16.1406H19.043ZM19.3417 14.6488C19.5296 14.2486 19.813 13.9017 20.213 13.6049L19.0213 11.9987C18.3719 12.4805 17.8682 13.0815 17.5314 13.7985L19.3417 14.6488ZM20.2069 13.6094C20.6107 13.3145 21.1509 13.069 21.8584 12.8977L21.3877 10.9539C20.4871 11.1719 19.69 11.5104 19.0275 11.9941L20.2069 13.6094ZM21.868 12.8953C22.5724 12.7174 23.4262 12.6211 24.4414 12.6211V10.6211C23.3069 10.6211 22.2818 10.728 21.3781 10.9562L21.868 12.8953ZM24.4414 12.6211H26.4219V10.6211H24.4414V12.6211ZM36.4004 9.19629H37.4004V9.15523L37.397 9.11432L36.4004 9.19629ZM36.4004 20V21H37.4004V20H36.4004ZM32.4268 20H31.4268V21H32.4268V20ZM32.4268 6.26367V5.26367H31.4268V6.26367H32.4268ZM36.1592 6.26367L37.1558 6.1817L37.0803 5.26367H36.1592V6.26367ZM35.8799 12.6494L35.9055 13.6491L36.8799 13.6241V12.6494H35.8799ZM34.8896 12.6748H33.8896V13.7008L34.9153 13.6745L34.8896 12.6748ZM36.3496 7.7998L35.5732 7.16963L35.5721 7.17094L36.3496 7.7998ZM38.0381 6.4668L37.619 5.55883L37.6146 5.56091L38.0381 6.4668ZM43.3574 7.19043L42.6209 7.86683L42.6281 7.87466L42.6354 7.88233L43.3574 7.19043ZM44.2461 8.81543L43.2883 9.10278L43.2893 9.10611L44.2461 8.81543ZM44.5508 20V21H45.5508V20H44.5508ZM40.5645 20H39.5645V21H40.5645V20ZM39.6123 9.28516L39.2277 10.2083L39.2366 10.2119L39.6123 9.28516ZM37.3018 9.37402L37.7759 10.2545L37.7845 10.2498L37.7931 10.245L37.3018 9.37402ZM36.0195 11.2529L35.0461 11.0239L35.044 11.033L35.042 11.0421L36.0195 11.2529ZM35.4004 9.19629V20H37.4004V9.19629H35.4004ZM36.4004 19H32.4268V21H36.4004V19ZM33.4268 20V6.26367H31.4268V20H33.4268ZM32.4268 7.26367H36.1592V5.26367H32.4268V7.26367ZM35.1625 6.34565L35.4038 9.27826L37.397 9.11432L37.1558 6.1817L35.1625 6.34565ZM35.8543 11.6497L34.864 11.6751L34.9153 13.6745L35.9055 13.6491L35.8543 11.6497ZM35.8896 12.6748C35.8896 11.7229 36.0068 10.8983 36.2259 10.19L34.3152 9.59906C34.0264 10.5327 33.8896 11.5616 33.8896 12.6748H35.8896ZM36.2259 10.19C36.4482 9.47119 36.7533 8.89081 37.1271 8.42867L35.5721 7.17094C35.0149 7.85984 34.6007 8.67595 34.3152 9.59906L36.2259 10.19ZM37.1261 8.42997C37.5092 7.95791 37.9532 7.6104 38.4616 7.37268L37.6146 5.56091C36.8196 5.93257 36.1379 6.47373 35.5732 7.16964L37.1261 8.42997ZM38.4571 7.37476C38.9739 7.13623 39.557 7.00977 40.2217 7.00977V5.00977C39.2952 5.00977 38.4225 5.18799 37.619 5.55884L38.4571 7.37476ZM40.2217 7.00977C40.768 7.00977 41.243 7.08871 41.6566 7.23315L42.316 5.34497C41.6632 5.11701 40.9618 5.00977 40.2217 5.00977V7.00977ZM41.6566 7.23315C42.0347 7.36519 42.3519 7.5739 42.6209 7.86683L44.094 6.51402C43.6013 5.97753 43.0043 5.58533 42.316 5.34497L41.6566 7.23315ZM42.6354 7.88233C42.8908 8.14876 43.1192 8.53935 43.2883 9.10278L45.2039 8.52808C44.9667 7.73734 44.6027 7.0446 44.0794 6.49852L42.6354 7.88233ZM43.2893 9.10611C43.4548 9.65096 43.5508 10.3712 43.5508 11.291H45.5508C45.5508 10.2473 45.4436 9.31714 45.2029 8.52475L43.2893 9.10611ZM43.5508 11.291V20H45.5508V11.291H43.5508ZM44.5508 19H40.5645V21H44.5508V19ZM41.5645 20V11.2783H39.5645V20H41.5645ZM41.5645 11.2783C41.5645 10.6333 41.4782 10.0054 41.2128 9.48851L39.4337 10.4021C39.4899 10.5115 39.5645 10.7723 39.5645 11.2783H41.5645ZM41.2128 9.48851C40.9475 8.97192 40.5331 8.57941 39.988 8.35842L39.2366 10.2119C39.3178 10.2448 39.3773 10.2924 39.4337 10.4021L41.2128 9.48851ZM39.9969 8.36208C39.5371 8.17048 39.0256 8.09473 38.4951 8.09473V10.0947C38.8448 10.0947 39.0782 10.1459 39.2277 10.2082L39.9969 8.36208ZM38.4951 8.09473C37.8965 8.09473 37.3211 8.21498 36.8104 8.50305L37.7931 10.245C37.9426 10.1607 38.1628 10.0947 38.4951 10.0947V8.09473ZM36.8277 8.49355C36.3475 8.75208 35.954 9.11716 35.6538 9.57343L37.3247 10.6727C37.4477 10.4857 37.5958 10.3514 37.7759 10.2545L36.8277 8.49355ZM35.6538 9.57343C35.3688 10.0066 35.1705 10.4952 35.0461 11.0239L36.9929 11.482C37.0717 11.1474 37.1865 10.8827 37.3247 10.6727L35.6538 9.57343ZM35.042 11.0421C34.9322 11.5513 34.8799 12.0882 34.8799 12.6494H36.8799C36.8799 12.2119 36.9207 11.8178 36.9971 11.4638L35.042 11.0421ZM55.1387 16.9277H54.1387V16.9936L54.1473 17.0588L55.1387 16.9277ZM55.1387 0.5V-0.5H54.1387V0.5H55.1387ZM59.125 0.5H60.125V-0.5H59.125V0.5ZM59.125 20V21H60.125V20H59.125ZM55.5449 20L54.5536 20.1311L54.6684 21H55.5449V20ZM46.9248 10.1865L45.9605 9.9218L45.9587 9.92827L46.9248 10.1865ZM47.9531 7.96484L47.1453 7.37537L47.1439 7.37733L47.9531 7.96484ZM49.6416 6.51758L49.1899 5.62542L49.6416 6.51758ZM54.0215 6.54297L53.507 7.40051L53.5161 7.40585L54.0215 6.54297ZM55.5322 8.01562L54.6951 8.56257L54.6993 8.56906L54.7036 8.57548L55.5322 8.01562ZM56.5605 10.2373L55.6046 10.5307L55.6054 10.5334L56.5605 10.2373ZM57.1572 12.9922H58.1572V12.9241L58.148 12.8567L57.1572 12.9922ZM57.1572 13.4492L58.1484 13.582L58.1572 13.5159V13.4492H57.1572ZM56.5605 16.1025L55.6108 15.7892L55.608 15.7981L56.5605 16.1025ZM55.5322 18.2734L54.7036 17.7136L54.7019 17.7161L55.5322 18.2734ZM54.0088 19.7334L54.5142 20.5963L54.5179 20.5941L54.0088 19.7334ZM49.6162 19.7334L49.1509 20.6186L49.1556 20.621L49.6162 19.7334ZM47.9531 18.2734L47.1401 18.8557L47.9531 18.2734ZM46.9248 16.0645L45.9593 16.3251L45.9618 16.3341L46.9248 16.0645ZM50.6572 14.8076L49.6704 14.9691L49.6718 14.9778L49.6734 14.9865L50.6572 14.8076ZM51.7998 16.877L51.2451 17.709L51.2532 17.7144L51.2614 17.7197L51.7998 16.877ZM54.377 16.7627L54.9565 17.5777L54.9624 17.5734L54.9683 17.5691L54.377 16.7627ZM55.5449 13.8936L56.5449 13.9065V13.8936H55.5449ZM54.8848 10.0088L54.071 10.59L54.0765 10.5976L54.082 10.6051L54.8848 10.0088ZM54.085 9.33594L53.6377 10.2304L53.6473 10.2351L53.6569 10.2397L54.085 9.33594ZM51.8379 9.39941L52.3763 10.2421L52.3845 10.2369L52.3926 10.2315L51.8379 9.39941ZM51.0889 10.2246L50.2118 9.7443L50.2073 9.75241L50.203 9.7606L51.0889 10.2246ZM50.6699 11.4814L49.6879 11.2919L49.6855 11.3057L50.6699 11.4814ZM56.1387 16.9277V0.5H54.1387V16.9277H56.1387ZM55.1387 1.5H59.125V-0.5H55.1387V1.5ZM58.125 0.5V20H60.125V0.5H58.125ZM59.125 19H55.5449V21H59.125V19ZM56.5363 19.8689L56.13 16.7966L54.1473 17.0588L54.5536 20.1311L56.5363 19.8689ZM47.582 13.2969V13.0303H45.582V13.2969H47.582ZM47.582 13.0303C47.582 12.0615 47.6884 11.2021 47.8909 10.4448L45.9587 9.92827C45.7041 10.8806 45.582 11.917 45.582 13.0303H47.582ZM47.8891 10.4512C48.0996 9.68438 48.3955 9.05759 48.7623 8.55236L47.1439 7.37733C46.6136 8.10778 46.2239 8.96211 45.9605 9.92181L47.8891 10.4512ZM48.7609 8.55431C49.1282 8.05106 49.5706 7.67441 50.0933 7.40974L49.1899 5.62542C48.3754 6.03783 47.6922 6.62603 47.1453 7.37537L48.7609 8.55431ZM50.0933 7.40974C50.602 7.15216 51.2092 7.00977 51.9395 7.00977V5.00977C50.9431 5.00977 50.0184 5.20591 49.1899 5.62542L50.0933 7.40974ZM51.9395 7.00977C52.5817 7.00977 53.0923 7.15163 53.507 7.40046L54.536 5.68548C53.7658 5.22337 52.8883 5.00977 51.9395 5.00977V7.00977ZM53.5161 7.40585C53.9615 7.66676 54.356 8.04366 54.6951 8.56257L56.3694 7.46868C55.879 6.71806 55.2663 6.11319 54.5269 5.68009L53.5161 7.40585ZM54.7036 8.57548C55.0623 9.10637 55.3661 9.75373 55.6046 10.5307L57.5165 9.94388C57.2303 9.01124 56.8485 8.17748 56.3608 7.45577L54.7036 8.57548ZM55.6054 10.5334C55.8496 11.3211 56.0375 12.1851 56.1664 13.1277L58.148 12.8567C58.0061 11.8188 57.7962 10.8462 57.5157 9.94121L55.6054 10.5334ZM56.1572 12.9922V13.4492H58.1572V12.9922H56.1572ZM56.1661 13.3165C56.0465 14.2094 55.8604 15.0329 55.6109 15.7892L57.5102 16.4158C57.8023 15.5303 58.0141 14.5848 58.1484 13.582L56.1661 13.3165ZM55.608 15.7981C55.3706 16.5409 55.0667 17.1762 54.7036 17.7136L56.3608 18.8333C56.8441 18.118 57.2257 17.3061 57.5131 16.407L55.608 15.7981ZM54.7019 17.7161C54.3647 18.2185 53.9639 18.5981 53.4997 18.8727L54.5179 20.5941C55.2555 20.1578 55.8703 19.5641 56.3625 18.8308L54.7019 17.7161ZM53.5034 18.8705C53.0887 19.1134 52.5711 19.2539 51.9141 19.2539V21.2539C52.8651 21.2539 53.744 21.0474 54.5142 20.5963L53.5034 18.8705ZM51.9141 19.2539C51.1876 19.2539 50.5836 19.1088 50.0769 18.8458L49.1556 20.621C49.986 21.052 50.914 21.2539 51.9141 21.2539V19.2539ZM50.0815 18.8482C49.5639 18.5762 49.127 18.1951 48.7661 17.6912L47.1401 18.8557C47.6763 19.6044 48.3482 20.1966 49.1509 20.6186L50.0815 18.8482ZM48.7661 17.6912C48.3942 17.1719 48.0977 16.5446 47.8878 15.7948L45.9618 16.3341C46.2259 17.277 46.6149 18.1224 47.1401 18.8557L48.7661 17.6912ZM47.8902 15.8038C47.6876 15.0533 47.582 14.2195 47.582 13.2969H45.582C45.582 14.3716 45.705 15.3829 45.9594 16.3251L47.8902 15.8038ZM49.543 13.0303V13.2969H51.543V13.0303H49.543ZM49.543 13.2969C49.543 13.8849 49.5843 14.4431 49.6704 14.9691L51.6441 14.6461C51.5778 14.2412 51.543 13.7922 51.543 13.2969H49.543ZM49.6734 14.9865C49.7729 15.5341 49.937 16.0437 50.1776 16.5031L51.9493 15.5751C51.8175 15.3235 51.7108 15.0121 51.6411 14.6287L49.6734 14.9865ZM50.1776 16.5031C50.434 16.9925 50.7879 17.4042 51.2451 17.709L52.3545 16.0449C52.2024 15.9435 52.0654 15.7966 51.9493 15.5751L50.1776 16.5031ZM51.2614 17.7197C51.7587 18.0374 52.3278 18.1689 52.917 18.1689V16.1689C52.626 16.1689 52.4502 16.1058 52.3382 16.0343L51.2614 17.7197ZM52.917 18.1689C53.6613 18.1689 54.3659 17.9976 54.9565 17.5777L53.7974 15.9477C53.6263 16.0695 53.3576 16.1689 52.917 16.1689V18.1689ZM54.9683 17.5691C55.5183 17.1658 55.9143 16.6205 56.1698 15.976L54.3107 15.2388C54.1769 15.5761 53.9973 15.801 53.7856 15.9563L54.9683 17.5691ZM56.1698 15.976C56.4185 15.3488 56.5351 14.6525 56.5448 13.9065L54.545 13.8806C54.5378 14.438 54.4513 14.8843 54.3107 15.2388L56.1698 15.976ZM56.5449 13.8936V12.5605H54.5449V13.8936H56.5449ZM56.5449 12.5605C56.5449 11.9528 56.4834 11.3811 56.3489 10.8536L54.4109 11.3476C54.4965 11.6834 54.5449 12.085 54.5449 12.5605H56.5449ZM56.3489 10.8536C56.2132 10.3213 55.9995 9.83243 55.6875 9.41247L54.082 10.6051C54.2102 10.7776 54.3265 11.0166 54.4109 11.3476L56.3489 10.8536ZM55.6985 9.42755C55.3903 8.99606 54.9922 8.65918 54.513 8.4322L53.6569 10.2397C53.8209 10.3174 53.9561 10.4291 54.071 10.59L55.6985 9.42755ZM54.5322 8.44151C54.044 8.19745 53.5035 8.09473 52.9424 8.09473V10.0947C53.2614 10.0947 53.4826 10.1528 53.6377 10.2304L54.5322 8.44151ZM52.9424 8.09473C52.3493 8.09473 51.7797 8.23633 51.2832 8.56736L52.3926 10.2315C52.5054 10.1563 52.6722 10.0947 52.9424 10.0947V8.09473ZM51.2995 8.55672C50.8368 8.85232 50.4772 9.25962 50.2118 9.7443L51.966 10.7049C52.0899 10.4787 52.2296 10.3358 52.3763 10.2421L51.2995 8.55672ZM50.203 9.7606C49.9628 10.2192 49.7956 10.7344 49.688 11.292L51.6518 11.6709C51.7304 11.2636 51.8425 10.9409 51.9747 10.6886L50.203 9.7606ZM49.6855 11.3057C49.589 11.846 49.543 12.4219 49.543 13.0303H51.543C51.543 12.5215 51.5816 12.0648 51.6544 11.6572L49.6855 11.3057ZM76.7969 14.96L75.8525 14.6309L75.8504 14.6373L76.7969 14.96ZM75.1592 17.8164L74.4171 17.1461L74.4131 17.1506L75.1592 17.8164ZM72.6455 19.6318L73.0404 20.5506L73.0442 20.5489L72.6455 19.6318ZM66.209 19.6318L65.8102 20.5489L65.817 20.5518L66.209 19.6318ZM63.6699 17.8164L62.9278 18.4867L62.9318 18.4911L63.6699 17.8164ZM62.0195 6.56836L62.9638 6.89744L62.9646 6.89523L62.0195 6.56836ZM63.6572 3.69922L62.9151 3.02892L62.9111 3.03336L63.6572 3.69922ZM66.1836 1.89648L66.5756 2.81648L66.5823 2.81355L66.1836 1.89648ZM72.6328 1.89648L72.2341 2.81358L72.2408 2.81645L72.6328 1.89648ZM75.1465 3.69922L74.4004 4.36509L74.4044 4.3695L75.1465 3.69922ZM76.7969 6.56836L75.8518 6.89523L75.8526 6.89744L76.7969 6.56836ZM72.9502 7.83789L71.9762 8.0644L71.9768 8.06693L72.9502 7.83789ZM71.0205 4.90527L70.5482 5.78684L70.5607 5.79327L71.0205 4.90527ZM67.7705 4.90527L68.237 5.78993L68.2494 5.78317L67.7705 4.90527ZM66.5898 6.00977L65.7533 5.4617L65.7468 5.47195L66.5898 6.00977ZM65.8662 7.83789L64.8922 7.61137L64.8903 7.61974L65.8662 7.83789ZM65.8662 13.665L64.8897 13.8808L64.8928 13.8941L65.8662 13.665ZM67.7832 16.623L67.3043 17.501L67.311 17.5045L67.7832 16.623ZM71.0332 16.623L70.561 15.7415L70.5544 15.7452L71.0332 16.623ZM72.9502 13.665L71.9762 13.4385L71.9743 13.4469L72.9502 13.665ZM76.3809 10.3516V11.1768H78.3809V10.3516H76.3809ZM76.3809 11.1768C76.3809 12.4901 76.1988 13.6372 75.8526 14.6309L77.7412 15.289C78.1736 14.0483 78.3809 12.6733 78.3809 11.1768H76.3809ZM75.8504 14.6373C75.5084 15.6405 75.0272 16.4706 74.4171 17.1461L75.9013 18.4867C76.713 17.588 77.3237 16.5138 77.7434 15.2826L75.8504 14.6373ZM74.4131 17.1506C73.8075 17.8291 73.0883 18.3489 72.2468 18.7148L73.0442 20.5489C74.1493 20.0684 75.1059 19.3779 75.9053 18.4823L74.4131 17.1506ZM72.2506 18.7131C71.4247 19.0681 70.4906 19.2539 69.4336 19.2539V21.2539C70.7295 21.2539 71.9366 21.025 73.0404 20.5506L72.2506 18.7131ZM69.4336 19.2539C68.3768 19.2539 67.4371 19.0681 66.601 18.7119L65.817 20.5518C66.9274 21.0249 68.1376 21.2539 69.4336 21.2539V19.2539ZM66.6077 18.7148C65.764 18.3479 65.0331 17.8256 64.4081 17.1418L62.9318 18.4911C63.7456 19.3814 64.7074 20.0694 65.8103 20.5489L66.6077 18.7148ZM64.412 17.1461C63.8004 16.4689 63.3143 15.6365 62.9638 14.6309L61.0752 15.289C61.5034 16.5178 62.1176 17.5896 62.9278 18.4867L64.412 17.1461ZM62.9638 14.6309C62.6176 13.6372 62.4355 12.4901 62.4355 11.1768H60.4355C60.4355 12.6733 60.6429 14.0483 61.0752 15.289L62.9638 14.6309ZM62.4355 11.1768V10.3516H60.4355V11.1768H62.4355ZM62.4355 10.3516C62.4355 9.03819 62.6176 7.89109 62.9638 6.89744L61.0752 6.23928C60.6429 7.48 60.4355 8.85504 60.4355 10.3516H62.4355ZM62.9646 6.89523C63.3162 5.87854 63.7996 5.04152 64.4033 4.36508L62.9111 3.03336C62.1099 3.93114 61.5015 5.00687 61.0745 6.24149L62.9646 6.89523ZM64.3993 4.3695C65.0133 3.68975 65.7361 3.17417 66.5756 2.81645L65.7916 0.976514C64.6845 1.44823 63.723 2.13447 62.9151 3.02893L64.3993 4.3695ZM66.5823 2.81355C67.4168 2.45074 68.354 2.26172 69.4082 2.26172V0.261719C68.1095 0.261719 66.897 0.495876 65.7849 0.979414L66.5823 2.81355ZM69.4082 2.26172C70.4624 2.26172 71.3996 2.45074 72.2341 2.81355L73.0315 0.979414C71.9194 0.495876 70.7069 0.261719 69.4082 0.261719V2.26172ZM72.2408 2.81645C73.0792 3.1737 73.7961 3.688 74.4004 4.36508L75.8926 3.03336C75.0919 2.13622 74.133 1.4487 73.0248 0.976514L72.2408 2.81645ZM74.4044 4.3695C75.0148 5.04537 75.501 5.88092 75.8518 6.89523L77.7419 6.24149C77.3141 5.0045 76.7 3.92728 75.8886 3.02893L74.4044 4.3695ZM75.8526 6.89744C76.1988 7.89109 76.3809 9.03819 76.3809 10.3516H78.3809C78.3809 8.85504 78.1736 7.48 77.7412 6.23928L75.8526 6.89744ZM74.2041 11.1768V10.3262H72.2041V11.1768H74.2041ZM74.2041 10.3262C74.2041 9.32931 74.1145 8.42034 73.9236 7.60885L71.9768 8.06693C72.1244 8.69424 72.2041 9.44413 72.2041 10.3262H74.2041ZM73.9242 7.61138C73.7353 6.79895 73.4512 6.07361 73.0503 5.46174L71.3774 6.55779C71.6198 6.92769 71.8266 7.4211 71.9762 8.0644L73.9242 7.61138ZM73.0503 5.46174C72.6441 4.84171 72.1218 4.34948 71.4804 4.01728L70.5607 5.79327C70.8671 5.95195 71.1404 6.19605 71.3774 6.55779L73.0503 5.46174ZM71.4927 4.02379C70.8571 3.68329 70.1542 3.52441 69.4082 3.52441V5.52441C69.864 5.52441 70.236 5.61945 70.5483 5.78675L71.4927 4.02379ZM69.4082 3.52441C68.6449 3.52441 67.9286 3.67998 67.2917 4.02738L68.2494 5.78317C68.5434 5.62276 68.9189 5.52441 69.4082 5.52441V3.52441ZM67.3041 4.0207C66.6721 4.35396 66.1569 4.84578 65.7534 5.46174L67.4263 6.55779C67.666 6.19198 67.938 5.94748 68.2369 5.78984L67.3041 4.0207ZM65.7468 5.47195C65.3581 6.08117 65.0802 6.80282 64.8922 7.61138L66.8402 8.0644C66.9907 7.41723 67.1952 6.92013 67.4329 6.54758L65.7468 5.47195ZM64.8903 7.61974C64.7098 8.42714 64.625 9.33229 64.625 10.3262H66.625C66.625 9.44115 66.701 8.68744 66.8421 8.05604L64.8903 7.61974ZM64.625 10.3262V11.1768H66.625V10.3262H64.625ZM64.625 11.1768C64.625 12.1632 64.71 13.0671 64.8898 13.8808L66.8427 13.4493C66.7008 12.8072 66.625 12.0523 66.625 11.1768H64.625ZM64.8928 13.8941C65.082 14.6984 65.3655 15.4193 65.7618 16.0346L67.4433 14.9517C67.1963 14.5683 66.9889 14.0705 66.8396 13.436L64.8928 13.8941ZM65.7618 16.0346C66.1629 16.6574 66.675 17.1577 67.3044 17.5009L68.2621 15.7452C67.9604 15.5806 67.6854 15.3276 67.4433 14.9517L65.7618 16.0346ZM67.311 17.5045C67.9524 17.8482 68.6698 18.0039 69.4336 18.0039V16.0039C68.9448 16.0039 68.5619 15.9057 68.2554 15.7416L67.311 17.5045ZM69.4336 18.0039C70.1792 18.0039 70.881 17.8451 71.5121 17.5009L70.5544 15.7452C70.2544 15.9088 69.8898 16.0039 69.4336 16.0039V18.0039ZM71.5054 17.5045C72.1443 17.1623 72.6635 16.6615 73.0673 16.0346L71.3858 14.9517C71.1464 15.3235 70.87 15.576 70.561 15.7416L71.5054 17.5045ZM73.0673 16.0346C73.4659 15.4157 73.7456 14.6908 73.9261 13.8832L71.9743 13.4469C71.8332 14.0781 71.6304 14.5719 71.3858 14.9517L73.0673 16.0346ZM73.9242 13.8916C74.1144 13.0739 74.2041 12.1662 74.2041 11.1768H72.2041C72.2041 12.0493 72.1246 12.8004 71.9762 13.4385L73.9242 13.8916ZM84.5283 17.1943L83.5611 16.9405L83.5295 17.0608L83.5284 17.1853L84.5283 17.1943ZM87.3975 6.26367V5.26367H86.6261L86.4302 6.00979L87.3975 6.26367ZM91.5615 6.26367L92.5106 6.57858L92.9469 5.26367H91.5615V6.26367ZM87.0039 20V21H87.7257L87.953 20.3149L87.0039 20ZM84.5029 20L83.503 19.991L83.4938 21H84.5029V20ZM82.6748 6.26367L83.6424 6.01111L83.4473 5.26367H82.6748V6.26367ZM85.5312 17.207L86.5312 17.1979L86.5301 17.0742L86.4988 16.9545L85.5312 17.207ZM85.5566 20V21H86.5658L86.5566 19.9909L85.5566 20ZM83.0557 20L82.1065 20.3149L82.3338 21H83.0557V20ZM78.498 6.26367V5.26367H77.1126L77.5489 6.57858L78.498 6.26367ZM85.4956 17.4482L88.3647 6.51756L86.4302 6.00979L83.5611 16.9405L85.4956 17.4482ZM87.3975 7.26367H91.5615V5.26367H87.3975V7.26367ZM90.6124 5.94876L86.0548 19.6851L87.953 20.3149L92.5106 6.57858L90.6124 5.94876ZM87.0039 19H84.5029V21H87.0039V19ZM85.5029 20.009L85.5283 17.2034L83.5284 17.1853L83.503 19.991L85.5029 20.009ZM81.7072 6.51623L84.5637 17.4596L86.4988 16.9545L83.6424 6.01111L81.7072 6.51623ZM84.5313 17.2161L84.5567 20.0091L86.5566 19.9909L86.5312 17.1979L84.5313 17.2161ZM85.5566 19H83.0557V21H85.5566V19ZM84.0048 19.6851L79.4472 5.94876L77.5489 6.57858L82.1065 20.3149L84.0048 19.6851ZM78.498 7.26367H82.6748V5.26367H78.498V7.26367ZM94.1895 18.2988L93.4676 18.991L93.4774 19.001L94.1895 18.2988ZM94.0498 8.02832L93.2948 7.37263L93.2941 7.37339L94.0498 8.02832ZM96.1064 6.54297L96.4992 7.46264L96.5073 7.45913L96.1064 6.54297ZM101.489 6.49219L101.1 7.41348L101.109 7.41708L101.489 6.49219ZM103.419 7.85059L102.67 8.51364L102.675 8.51896L103.419 7.85059ZM104.612 9.9707L103.662 10.2811L103.666 10.2928L104.612 9.9707ZM105.031 14.3633V15.3633H106.031V14.3633H105.031ZM93.9609 14.3633H92.9609V15.3633H93.9609V14.3633ZM93.9609 11.8115V10.8115H92.9609V11.8115H93.9609ZM101.146 11.8115V12.8115H102.146V11.8115H101.146ZM100.88 10.2373L99.9732 10.659L99.9772 10.6676L99.9813 10.6761L100.88 10.2373ZM100.118 9.39941L99.5941 10.2511L99.6068 10.2589L99.6197 10.2663L100.118 9.39941ZM96.8809 10.2627L95.9946 9.79942L95.9906 9.80722L96.8809 10.2627ZM96.4746 11.5449L97.4596 11.7177L97.4601 11.7148L96.4746 11.5449ZM98.2139 16.915L97.8059 17.828L98.2139 16.915ZM101.362 16.8262L101.748 17.7489L101.76 17.7439L101.362 16.8262ZM102.835 15.6836L103.588 15.0254L102.803 14.1272L102.055 15.0573L102.835 15.6836ZM104.688 17.8037L105.513 18.3702L105.953 17.7302L105.441 17.1455L104.688 17.8037ZM103.508 18.9844L104.106 19.786L104.108 19.7844L103.508 18.9844ZM99.3184 19.2539C98.3326 19.2539 97.4847 19.0974 96.7587 18.8055L96.0128 20.6612C97.0133 21.0634 98.1206 21.2539 99.3184 21.2539V19.2539ZM96.7587 18.8055C96.0115 18.5052 95.3979 18.1001 94.9015 17.5967L93.4774 19.001C94.1828 19.7163 95.0334 20.2676 96.0128 20.6612L96.7587 18.8055ZM94.9112 17.6067C94.4105 17.0845 94.0287 16.4857 93.7629 15.8031L91.8992 16.5289C92.2597 17.4544 92.7835 18.2775 93.4677 18.9909L94.9112 17.6067ZM93.7629 15.8031C93.4974 15.1215 93.3613 14.3862 93.3613 13.5889H91.3613C91.3613 14.6196 91.5384 15.6025 91.8992 16.5289L93.7629 15.8031ZM93.3613 13.5889V13.1064H91.3613V13.5889H93.3613ZM93.3613 13.1064C93.3613 12.1765 93.4919 11.341 93.7417 10.5916L91.8443 9.95916C91.5186 10.9363 91.3613 11.9882 91.3613 13.1064H93.3613ZM93.7417 10.5916C93.9914 9.84235 94.3482 9.21087 94.8055 8.68325L93.2941 7.37339C92.6511 8.1153 92.1701 8.98187 91.8443 9.95916L93.7417 10.5916ZM94.8048 8.68401C95.2605 8.15932 95.8206 7.75244 96.4992 7.46261L95.7137 5.62333C94.7673 6.0275 93.9563 6.61086 93.2948 7.37263L94.8048 8.68401ZM96.5073 7.45913C97.1733 7.16772 97.96 7.00977 98.8867 7.00977V5.00977C97.7314 5.00977 96.6646 5.20728 95.7056 5.62681L96.5073 7.45913ZM98.8867 7.00977C99.7497 7.00977 100.481 7.15216 101.1 7.41344L101.878 5.57094C100.974 5.18899 99.9703 5.00977 98.8867 5.00977V7.00977ZM101.109 7.41708C101.735 7.67463 102.251 8.04011 102.67 8.51362L104.168 7.18755C103.537 6.47617 102.766 5.93605 101.869 5.5673L101.109 7.41708ZM102.675 8.51896C103.097 8.98833 103.429 9.56929 103.662 10.2811L105.563 9.6603C105.254 8.71327 104.79 7.88081 104.163 7.18222L102.675 8.51896ZM103.666 10.2928C103.904 10.9932 104.031 11.8044 104.031 12.7383H106.031C106.031 11.624 105.879 10.5901 105.559 9.64863L103.666 10.2928ZM104.031 12.7383V14.3633H106.031V12.7383H104.031ZM105.031 13.3633H93.9609V15.3633H105.031V13.3633ZM94.9609 14.3633V11.8115H92.9609V14.3633H94.9609ZM93.9609 12.8115H101.146V10.8115H93.9609V12.8115ZM102.146 11.8115V11.5068H100.146V11.8115H102.146ZM102.146 11.5068C102.146 10.9011 102.035 10.3228 101.778 9.79847L99.9813 10.6761C100.081 10.8797 100.146 11.1477 100.146 11.5068H102.146ZM101.787 9.81557C101.533 9.27026 101.139 8.83294 100.617 8.53251L99.6197 10.2663C99.7743 10.3552 99.8883 10.4765 99.9732 10.659L101.787 9.81557ZM100.642 8.54776C100.113 8.22191 99.498 8.09473 98.8613 8.09473V10.0947C99.2402 10.0947 99.4634 10.1707 99.5941 10.2511L100.642 8.54776ZM98.8613 8.09473C98.2402 8.09473 97.6405 8.22601 97.1213 8.55393L98.1893 10.2449C98.3133 10.1666 98.5177 10.0947 98.8613 10.0947V8.09473ZM97.1213 8.55393C96.6354 8.86081 96.2622 9.2876 95.9946 9.79944L97.7671 10.7259C97.8889 10.493 98.0319 10.3443 98.1893 10.2449L97.1213 8.55393ZM95.9906 9.80722C95.7497 10.2781 95.5873 10.8056 95.4892 11.375L97.4601 11.7148C97.5312 11.3025 97.6396 10.9751 97.7711 10.7182L95.9906 9.80722ZM95.4897 11.3721C95.3937 11.9189 95.3477 12.4978 95.3477 13.1064H97.3477C97.3477 12.5979 97.3862 12.1358 97.4596 11.7177L95.4897 11.3721ZM95.3477 13.1064V13.5889H97.3477V13.1064H95.3477ZM95.3477 13.5889C95.3477 14.2119 95.4318 14.8053 95.613 15.3596L97.514 14.7381C97.4074 14.4122 97.3477 14.0322 97.3477 13.5889H95.3477ZM95.613 15.3596C95.7953 15.9171 96.0717 16.418 96.452 16.8443L97.9445 15.5131C97.7662 15.3131 97.6195 15.0607 97.514 14.7381L95.613 15.3596ZM96.452 16.8443C96.8289 17.267 97.2842 17.5949 97.8059 17.828L98.6218 16.002C98.348 15.8797 98.1262 15.7167 97.9445 15.5131L96.452 16.8443ZM97.8059 17.828C98.3516 18.0718 98.9469 18.1816 99.5723 18.1816V16.1816C99.182 16.1816 98.8717 16.1137 98.6218 16.002L97.8059 17.828ZM99.5723 18.1816C100.328 18.1816 101.056 18.0379 101.748 17.7488L100.977 15.9035C100.534 16.0884 100.069 16.1816 99.5723 16.1816V18.1816ZM101.76 17.7439C102.486 17.4292 103.106 16.9436 103.615 16.3098L102.055 15.0573C101.735 15.4561 101.372 15.7322 100.965 15.9084L101.76 17.7439ZM102.082 16.3418L103.936 18.4619L105.441 17.1455L103.588 15.0254L102.082 16.3418ZM103.864 17.2372C103.661 17.5325 103.352 17.8509 102.908 18.1844L104.108 19.7844C104.679 19.3561 105.157 18.8875 105.513 18.3702L103.864 17.2372ZM102.91 18.1827C102.509 18.4815 102.007 18.7414 101.385 18.9509L102.025 20.846C102.809 20.5815 103.508 20.232 104.106 19.786L102.91 18.1827ZM101.385 18.9509C100.804 19.147 100.119 19.2539 99.3184 19.2539V21.2539C100.295 21.2539 101.201 21.1238 102.025 20.846L101.385 18.9509ZM110.935 9.46289H111.935V9.42525L111.932 9.38771L110.935 9.46289ZM110.935 20V21H111.935V20H110.935ZM106.974 20H105.974V21H106.974V20ZM106.974 6.26367V5.26367H105.974V6.26367H106.974ZM110.693 6.26367L111.691 6.18849L111.621 5.26367H110.693V6.26367ZM115.035 6.16211L116.035 6.17929L116.047 5.45891L115.368 5.21912L115.035 6.16211ZM114.972 9.85645L114.823 10.8454L115.952 11.0147L115.972 9.87362L114.972 9.85645ZM114.312 9.79297L114.218 10.7886L114.234 10.7901L114.249 10.791L114.312 9.79297ZM112.293 9.94531L112.603 10.8963L112.616 10.8918L112.293 9.94531ZM111.379 10.4785L110.684 9.75911L110.678 9.76521L110.672 9.77141L111.379 10.4785ZM110.846 11.3672L111.792 11.6903L111.794 11.6834L110.846 11.3672ZM110.668 12.5732L110.227 13.4707L111.668 14.179V12.5732H110.668ZM109.919 12.2051H108.919V12.8278L109.478 13.1025L109.919 12.2051ZM110.96 7.76172L111.812 8.28583L111.815 8.28002L110.96 7.76172ZM112.204 6.4668L112.731 7.31644L112.204 6.4668ZM109.935 9.46289V20H111.935V9.46289H109.935ZM110.935 19H106.974V21H110.935V19ZM107.974 20V6.26367H105.974V20H107.974ZM106.974 7.26367H110.693V5.26367H106.974V7.26367ZM109.696 6.33886L109.937 9.53807L111.932 9.38771L111.691 6.18849L109.696 6.33886ZM114.035 6.14493L113.972 9.83927L115.972 9.87362L116.035 6.17929L114.035 6.14493ZM115.12 8.86751C114.911 8.83612 114.659 8.81273 114.374 8.79492L114.249 10.791C114.506 10.8071 114.694 10.826 114.823 10.8454L115.12 8.86751ZM114.405 8.79733C114.114 8.77008 113.849 8.75488 113.613 8.75488V10.7549C113.767 10.7549 113.967 10.7651 114.218 10.7886L114.405 8.79733ZM113.613 8.75488C113.026 8.75488 112.472 8.82784 111.97 8.9988L112.616 10.8918C112.859 10.8089 113.185 10.7549 113.613 10.7549V8.75488ZM111.983 8.99444C111.493 9.15412 111.052 9.40456 110.684 9.75911L112.074 11.1979C112.197 11.0785 112.365 10.9735 112.603 10.8962L111.983 8.99444ZM110.672 9.77141C110.313 10.1306 110.059 10.5658 109.897 11.051L111.794 11.6834C111.87 11.4577 111.971 11.3004 112.086 11.1856L110.672 9.77141ZM109.899 11.044C109.738 11.5171 109.668 12.0322 109.668 12.5732H111.668C111.668 12.2002 111.717 11.9113 111.792 11.6903L109.899 11.044ZM111.109 11.6758L110.36 11.3076L109.478 13.1025L110.227 13.4707L111.109 11.6758ZM110.919 12.2051C110.919 11.3641 111.002 10.613 111.159 9.94645L109.212 9.48715C109.014 10.3271 108.919 11.2349 108.919 12.2051H110.919ZM111.159 9.94645C111.317 9.27723 111.539 8.72895 111.812 8.28582L110.108 7.23762C109.704 7.89474 109.41 8.64985 109.212 9.48715L111.159 9.94645ZM111.815 8.28002C112.083 7.83841 112.391 7.52775 112.731 7.31644L111.677 5.61716C111.035 6.01522 110.514 6.56784 110.105 7.24342L111.815 8.28002ZM112.731 7.31644C113.051 7.11827 113.424 7.00977 113.88 7.00977V5.00977C113.083 5.00977 112.339 5.20595 111.677 5.61716L112.731 7.31644ZM113.88 7.00977C114.041 7.00977 114.209 7.01985 114.383 7.04073L114.621 5.05497C114.372 5.02507 114.125 5.00977 113.88 5.00977V7.00977ZM114.383 7.04073C114.548 7.06054 114.649 7.08622 114.702 7.1051L115.368 5.21912C115.134 5.13644 114.879 5.08595 114.621 5.05497L114.383 7.04073Z" fill="#1D218B" fill-opacity="0.25"/>
</svg>