<svg xmlns="http://www.w3.org/2000/svg" width="125" height="45" viewBox="0 0 125 45" fill="none">
<rect x="1" y="1" width="122.852" height="42.4169" rx="1" fill="white"/>
<rect x="1" y="1" width="122.852" height="42.4169" rx="1" fill="#1C65F3" fill-opacity="0.1"/>
<path d="M18.9879 23.1863L19.0909 25.1523L13.2084 25.4606L13.1053 23.4946L18.9879 23.1863ZM13.6693 18.8806L14.2646 30.24L11.7213 30.3733L11.1259 19.0139L13.6693 18.8806ZM20.5037 18.5224L21.099 29.8818L18.5634 30.0147L17.9681 18.6553L20.5037 18.5224ZM30.4228 27.3748L30.2331 23.7548C30.2197 23.4999 30.1692 23.2835 30.0817 23.1056C29.9941 22.9276 29.8644 22.791 29.6925 22.6957C29.5206 22.6004 29.302 22.5597 29.0368 22.5736C28.8131 22.5853 28.6201 22.6345 28.4578 22.7213C28.3006 22.8077 28.1817 22.9261 28.1009 23.0764C28.0253 23.2264 27.9931 23.408 28.0043 23.6212L25.5701 23.7488C25.5502 23.3691 25.6175 23.0109 25.7719 22.6743C25.9264 22.3376 26.1557 22.0361 26.4599 21.7698C26.7693 21.5033 27.1441 21.2907 27.5843 21.132C28.0243 20.9681 28.5225 20.8716 29.079 20.8424C29.7396 20.8078 30.3332 20.8888 30.8598 21.0855C31.3914 21.2767 31.8196 21.5854 32.1444 22.0117C32.469 22.4328 32.6487 22.9762 32.6836 23.642L32.8689 27.1762C32.8956 27.6859 32.9452 28.0849 33.0176 28.3732C33.095 28.656 33.1965 28.901 33.3222 29.1083L33.3291 29.2409L30.8715 29.3697C30.7443 29.1312 30.6427 28.8341 30.5666 28.4782C30.4904 28.1171 30.4424 27.7493 30.4228 27.3748ZM30.5627 24.2225L30.6486 25.5636L29.4393 25.627C29.1689 25.6412 28.9366 25.6873 28.7425 25.7652C28.5536 25.8429 28.4024 25.9447 28.2891 26.0706C28.1755 26.1913 28.0941 26.3312 28.0451 26.4902C28.001 26.6438 27.9837 26.8116 27.9932 26.9936C28.0022 27.1653 28.052 27.3191 28.1426 27.4552C28.2329 27.5861 28.3529 27.6867 28.5026 27.7571C28.6524 27.8275 28.8234 27.8576 29.0159 27.8475C29.3332 27.8309 29.6004 27.7543 29.8175 27.6178C30.0398 27.4809 30.2087 27.3208 30.3243 27.1375C30.4396 26.9489 30.4931 26.7766 30.4849 26.6205L31.1232 27.6041C31.0405 27.817 30.9374 28.0389 30.8139 28.2696C30.6901 28.4952 30.5292 28.7096 30.3313 28.913C30.133 29.1111 29.8888 29.2778 29.5986 29.4129C29.3136 29.5478 28.9657 29.626 28.5548 29.6476C28.0243 29.6754 27.5376 29.594 27.0947 29.4033C26.6515 29.2075 26.29 28.9266 26.01 28.5605C25.7353 28.1942 25.5849 27.764 25.559 27.2698C25.5359 26.8277 25.5959 26.4308 25.7392 26.0791C25.8824 25.7274 26.109 25.4234 26.4189 25.1673C26.7341 24.9108 27.1356 24.7099 27.6234 24.5643C28.111 24.4136 28.685 24.321 29.3456 24.2863L30.5627 24.2225ZM39.8124 22.2436L40.1604 28.8829L37.7184 29.0109L37.276 20.5693L39.5697 20.4491L39.8124 22.2436ZM39.6037 24.3824L38.996 24.4299C38.9628 23.7954 39.0109 23.2217 39.1405 22.709C39.2701 22.1963 39.4687 21.7557 39.7362 21.387C40.0087 21.0128 40.3402 20.7217 40.7309 20.5134C41.1268 20.3049 41.5692 20.1879 42.0581 20.1622C42.4534 20.1415 42.8179 20.1798 43.1516 20.277C43.4852 20.3743 43.7758 20.5442 44.0232 20.7868C44.2755 21.0239 44.475 21.3473 44.6216 21.7568C44.768 22.1612 44.857 22.665 44.8886 23.2684L45.1691 28.6204L42.7193 28.7488L42.4384 23.3889C42.4199 23.0353 42.3562 22.7648 42.2473 22.5775C42.1384 22.3903 41.9856 22.2627 41.7891 22.1947C41.5978 22.1265 41.3669 22.0995 41.0964 22.1137C40.8104 22.1287 40.5689 22.1987 40.3721 22.3237C40.1749 22.4436 40.0165 22.6058 39.8969 22.8102C39.7772 23.0147 39.6931 23.2512 39.6446 23.5197C39.6013 23.788 39.5877 24.0755 39.6037 24.3824ZM54.7725 26.2239L54.2434 16.1284L56.6931 16L57.3212 27.9835L55.1211 28.0988L54.7725 26.2239ZM49.3971 24.2681L49.3885 24.1043C49.355 23.4646 49.3947 22.8783 49.5076 22.3457C49.6254 21.8075 49.8122 21.3414 50.068 20.9472C50.3287 20.5476 50.659 20.233 51.059 20.0034C51.459 19.7739 51.9243 19.6452 52.4548 19.6174C52.9437 19.5917 53.3759 19.6786 53.7514 19.878C54.1267 20.0722 54.452 20.3576 54.7273 20.7343C55.0075 21.1056 55.242 21.5497 55.4308 22.0665C55.6193 22.5782 55.7711 23.1361 55.8862 23.7403L55.9009 24.0212C55.8534 24.6078 55.7597 25.1577 55.6197 25.671C55.4849 26.1839 55.2975 26.6397 55.0577 27.0382C54.8227 27.4312 54.5263 27.7467 54.1685 27.9845C53.8156 28.2168 53.392 28.3459 52.8979 28.3718C52.3674 28.3996 51.8911 28.3176 51.469 28.1259C51.0522 27.9339 50.6958 27.6527 50.4 27.2823C50.1042 26.9118 49.8698 26.4704 49.6969 25.9579C49.5292 25.4451 49.4293 24.8819 49.3971 24.2681ZM51.8227 23.9767L51.8313 24.1406C51.8487 24.4734 51.8883 24.7817 51.9501 25.0653C52.0172 25.3486 52.1136 25.5965 52.2395 25.809C52.3653 26.0214 52.5252 26.1852 52.719 26.3002C52.9125 26.41 53.1445 26.4578 53.4149 26.4437C53.779 26.4246 54.0737 26.3257 54.299 26.147C54.5241 25.9631 54.6885 25.7172 54.7924 25.4092C54.8962 25.1013 54.9402 24.7469 54.9244 24.3462L54.8815 23.527C54.864 23.1941 54.8145 22.8968 54.733 22.6351C54.6515 22.3734 54.5384 22.155 54.3936 21.9801C54.254 21.8048 54.083 21.6756 53.8804 21.5923C53.6776 21.5039 53.4409 21.4667 53.1705 21.4809C52.9052 21.4948 52.6822 21.5691 52.5015 21.7037C52.3206 21.8332 52.176 22.0102 52.0678 22.235C51.9648 22.4594 51.8925 22.7214 51.8508 23.0208C51.8141 23.3148 51.8047 23.6335 51.8227 23.9767ZM66.6084 21.645L66.7082 23.5487L62.1675 23.7866L62.0678 21.883L66.6084 21.645ZM81.3614 20.778L81.388 21.2851C81.4332 22.1485 81.3542 22.9297 81.1509 23.6288C80.9529 24.3277 80.648 24.9304 80.2365 25.437C79.8301 25.9433 79.3347 26.3422 78.7502 26.6336C78.1706 26.9195 77.5194 27.0814 76.7964 27.1193C76.0734 27.1572 75.4062 27.0644 74.7947 26.8409C74.1829 26.6122 73.6433 26.2676 73.1759 25.807C72.7136 25.3462 72.3449 24.7788 72.0696 24.1048C71.7944 23.4307 71.6342 22.662 71.5889 21.7986L71.5623 21.2915C71.5171 20.4281 71.5961 19.6469 71.7994 18.9478C72.0024 18.2435 72.3071 17.6382 72.7134 17.1318C73.125 16.6252 73.6231 16.2288 74.2079 15.9426C74.7924 15.6512 75.4461 15.4866 76.1691 15.4487C76.8921 15.4108 77.5594 15.5062 78.1712 15.7349C78.7827 15.9584 79.317 16.3007 79.774 16.7618C80.2363 17.2226 80.6052 17.7926 80.8807 18.4719C81.1559 19.1459 81.3161 19.9146 81.3614 20.778ZM78.8212 21.4196L78.7938 20.8969C78.7635 20.3196 78.6848 19.8126 78.5576 19.3759C78.4301 18.9341 78.2597 18.5675 78.0462 18.2762C77.8328 17.9849 77.5765 17.7714 77.2773 17.6359C76.9778 17.4951 76.6435 17.4344 76.2742 17.4537C75.8893 17.4739 75.5579 17.5695 75.28 17.7405C75.0019 17.9064 74.7719 18.1453 74.59 18.4573C74.4134 18.7691 74.2848 19.1513 74.2042 19.6041C74.1286 20.0514 74.1059 20.5637 74.1361 21.141L74.1635 21.6637C74.1935 22.2358 74.2696 22.743 74.3919 23.1851C74.5191 23.6217 74.6895 23.9883 74.9033 24.2848C75.117 24.5814 75.371 24.8001 75.6652 24.9412C75.9647 25.0819 76.3068 25.1422 76.6917 25.1221C77.061 25.1027 77.3846 25.0075 77.6625 24.8365C77.9456 24.6652 78.1779 24.4209 78.3595 24.1037C78.541 23.7865 78.6696 23.4042 78.7453 22.9569C78.8259 22.5042 78.8512 21.9917 78.8212 21.4196ZM89.1698 24.5855L90.581 17.7757L93.1399 17.6416L90.7815 26.2299L89.2446 26.3105L89.1698 24.5855ZM87.6787 17.9278L89.7865 24.561L89.8921 26.2766L88.3551 26.3571L85.1119 18.0623L87.6787 17.9278ZM101.553 25.8219C100.882 25.8571 100.276 25.7819 99.7341 25.5965C99.1924 25.411 98.7271 25.1407 98.3382 24.7856C97.9542 24.425 97.653 24.0027 97.4347 23.5186C97.2163 23.0346 97.0924 22.5117 97.063 21.95L97.0475 21.6535C97.0145 21.0242 97.0725 20.4396 97.2215 19.8998C97.3706 19.3601 97.6039 18.8863 97.9216 18.4784C98.2441 18.0652 98.6495 17.7388 99.1376 17.4994C99.6255 17.2548 100.189 17.1157 100.829 17.0822C101.427 17.0508 101.965 17.1217 102.444 17.2948C102.922 17.4627 103.332 17.7203 103.674 18.0675C104.015 18.4095 104.282 18.8309 104.475 19.3319C104.673 19.8275 104.789 20.3899 104.822 21.0192L104.874 22.0179L98.071 22.3744L97.9888 20.8062L102.405 20.5748L102.395 20.3876C102.379 20.0911 102.311 19.8339 102.19 19.616C102.074 19.3978 101.909 19.2343 101.695 19.1256C101.486 19.0114 101.225 18.9625 100.913 18.9788C100.616 18.9944 100.373 19.0697 100.181 19.2049C99.9903 19.3401 99.8409 19.5253 99.7333 19.7604C99.6306 19.99 99.5612 20.2571 99.525 20.5614C99.4885 20.8606 99.4792 21.1819 99.4972 21.5252L99.5128 21.8216C99.5299 22.1493 99.5898 22.4461 99.6924 22.7119C99.795 22.9777 99.9372 23.2023 100.119 23.3858C100.301 23.5692 100.517 23.7092 100.767 23.8056C101.017 23.902 101.298 23.942 101.61 23.9257C101.995 23.9055 102.358 23.8135 102.699 23.6496C103.039 23.4805 103.329 23.2306 103.567 22.9L104.774 24.1432C104.616 24.4018 104.387 24.6564 104.087 24.9068C103.792 25.1517 103.432 25.3583 103.008 25.5266C102.584 25.6948 102.099 25.7933 101.553 25.8219ZM111.54 18.6488L111.879 25.1243L109.445 25.2518L109.003 16.8103L111.288 16.6905L111.54 18.6488ZM113.953 16.4882L114.033 18.7606C113.929 18.7505 113.793 18.7445 113.626 18.7429C113.458 18.736 113.315 18.7357 113.195 18.7419C112.883 18.7583 112.615 18.8115 112.39 18.9015C112.17 18.986 111.989 19.1051 111.846 19.2586C111.708 19.4119 111.608 19.5996 111.546 19.8219C111.485 20.039 111.461 20.2879 111.476 20.5688L111.004 20.3667C110.975 19.8101 111.003 19.2976 111.088 18.8289C111.173 18.3603 111.31 17.9515 111.501 17.6025C111.691 17.2483 111.932 16.9697 112.223 16.7667C112.515 16.5636 112.854 16.452 113.239 16.4318C113.363 16.4253 113.491 16.4264 113.622 16.4352C113.753 16.444 113.863 16.4617 113.953 16.4882Z" fill="#1845C6"/>
<path d="M10.8668 31.9827L114.66 26.5431L114.701 27.3233L10.9077 32.7629L10.8668 31.9827Z" fill="#1845C6"/>
<path d="M18.9879 23.1863L19.9865 23.1339L19.9342 22.1353L18.9355 22.1877L18.9879 23.1863ZM19.0909 25.1523L19.1433 26.151L20.1419 26.0986L20.0896 25.1L19.0909 25.1523ZM13.2084 25.4606L12.2097 25.513L12.2621 26.5116L13.2607 26.4593L13.2084 25.4606ZM13.1053 23.4946L13.053 22.4959L12.0544 22.5483L12.1067 23.5469L13.1053 23.4946ZM13.6693 18.8806L14.6679 18.8283L14.6156 17.8296L13.617 17.882L13.6693 18.8806ZM14.2646 30.24L14.317 31.2386L15.3156 31.1863L15.2633 30.1877L14.2646 30.24ZM11.7213 30.3733L10.7226 30.4256L10.775 31.4243L11.7736 31.3719L11.7213 30.3733ZM11.1259 19.0139L11.0736 18.0153L10.075 18.0676L10.1273 19.0662L11.1259 19.0139ZM20.5037 18.5224L21.5023 18.4701L21.45 17.4715L20.4514 17.5238L20.5037 18.5224ZM21.099 29.8818L21.1513 30.8805L22.15 30.8281L22.0976 29.8295L21.099 29.8818ZM18.5634 30.0147L17.5648 30.0671L17.6171 31.0657L18.6158 31.0134L18.5634 30.0147ZM17.9681 18.6553L17.9158 17.6567L16.9171 17.709L16.9695 18.7077L17.9681 18.6553ZM17.9893 23.2386L18.0923 25.2047L20.0896 25.1L19.9865 23.1339L17.9893 23.2386ZM19.0386 24.1537L13.156 24.462L13.2607 26.4593L19.1433 26.151L19.0386 24.1537ZM14.207 25.4083L14.104 23.4422L12.1067 23.5469L12.2097 25.513L14.207 25.4083ZM13.1577 24.4932L19.0402 24.1849L18.9355 22.1877L13.053 22.4959L13.1577 24.4932ZM12.6707 18.9329L13.266 30.2924L15.2633 30.1877L14.6679 18.8283L12.6707 18.9329ZM14.2123 29.2414L11.6689 29.3747L11.7736 31.3719L14.317 31.2386L14.2123 29.2414ZM12.7199 30.321L12.1246 18.9616L10.1273 19.0662L10.7226 30.4256L12.7199 30.321ZM11.1783 20.0125L13.7217 19.8792L13.617 17.882L11.0736 18.0153L11.1783 20.0125ZM19.5051 18.5748L20.1004 29.9342L22.0976 29.8295L21.5023 18.4701L19.5051 18.5748ZM21.0467 28.8832L18.5111 29.0161L18.6158 31.0134L21.1513 30.8805L21.0467 28.8832ZM19.5621 29.9624L18.9667 18.603L16.9695 18.7077L17.5648 30.0671L19.5621 29.9624ZM18.0204 19.6539L20.556 19.5211L20.4514 17.5238L17.9158 17.6567L18.0204 19.6539ZM28.4578 22.7213L27.9865 21.8392L27.9757 21.8451L28.4578 22.7213ZM28.1009 23.0764L27.2201 22.6028L27.2138 22.6145L27.2079 22.6264L28.1009 23.0764ZM28.0043 23.6212L28.0566 24.6199L29.0552 24.5675L29.0029 23.5689L28.0043 23.6212ZM25.5701 23.7488L24.5715 23.8012L24.6238 24.7998L25.6224 24.7474L25.5701 23.7488ZM26.4599 21.7698L25.8072 21.0122L25.8013 21.0174L26.4599 21.7698ZM27.5843 21.132L27.9234 22.0728L27.9334 22.0691L27.5843 21.132ZM30.8598 21.0855L30.51 22.0224L30.5214 22.0265L30.8598 21.0855ZM32.1444 22.0117L31.349 22.6178L31.3524 22.6222L32.1444 22.0117ZM33.0176 28.3732L32.0478 28.617L32.0504 28.6271L32.0531 28.6372L33.0176 28.3732ZM33.3222 29.1083L34.3208 29.0559L34.3076 28.8049L34.1774 28.59L33.3222 29.1083ZM33.3291 29.2409L33.3814 30.2395L34.3801 30.1872L34.3277 29.1886L33.3291 29.2409ZM30.8715 29.3697L29.9893 29.8404L30.2887 30.4016L30.9239 30.3683L30.8715 29.3697ZM30.5666 28.4782L29.5882 28.6849L29.5887 28.6871L30.5666 28.4782ZM30.5627 24.2225L31.5606 24.1586L31.4974 23.1722L30.5103 23.2239L30.5627 24.2225ZM30.6486 25.5636L30.7009 26.5623L31.7112 26.5093L31.6466 25.4997L30.6486 25.5636ZM28.7425 25.7652L28.3697 24.8373L28.3621 24.8404L28.7425 25.7652ZM28.2891 26.0706L29.0172 26.7561L29.0248 26.748L29.0322 26.7398L28.2891 26.0706ZM28.0451 26.4902L27.0895 26.1956L27.0866 26.2048L27.084 26.2142L28.0451 26.4902ZM28.1426 27.4552L27.3102 28.0093L27.3148 28.0163L27.3195 28.0231L28.1426 27.4552ZM29.8175 27.6178L29.2933 26.7661L29.2851 26.7713L29.8175 27.6178ZM30.3243 27.1375L31.1704 27.6706L31.1775 27.659L30.3243 27.1375ZM30.4849 26.6205L31.3238 26.0762L29.2909 22.9435L29.4863 26.6729L30.4849 26.6205ZM31.1232 27.6041L32.0554 27.9662L32.2407 27.4891L31.9621 27.0597L31.1232 27.6041ZM30.8139 28.2696L31.6906 28.7508L31.6955 28.7416L30.8139 28.2696ZM30.3313 28.913L31.0383 29.6203L31.0478 29.6105L30.3313 28.913ZM29.5986 29.4129L29.1764 28.5064L29.1708 28.5091L29.5986 29.4129ZM27.0947 29.4033L26.6905 30.3181L26.6993 30.3219L27.0947 29.4033ZM26.01 28.5605L25.21 29.1605L25.2157 29.168L26.01 28.5605ZM26.4189 25.1673L25.7878 24.3916L25.7819 24.3965L26.4189 25.1673ZM27.6234 24.5643L27.9093 25.5227L27.9187 25.5197L27.6234 24.5643ZM31.4214 27.3225L31.2317 23.7024L29.2344 23.8071L29.4241 27.4272L31.4214 27.3225ZM31.2317 23.7024C31.2132 23.3495 31.1408 22.993 30.9789 22.6641L29.1844 23.547C29.1977 23.574 29.2262 23.6503 29.2344 23.8071L31.2317 23.7024ZM30.9789 22.6641C30.8022 22.3049 30.5294 22.0163 30.1774 21.8211L29.2076 23.5703C29.2085 23.5707 29.207 23.57 29.2039 23.5676C29.2009 23.5653 29.1972 23.5621 29.1935 23.5582C29.1898 23.5543 29.1871 23.5508 29.1853 23.5482C29.1835 23.5456 29.1834 23.545 29.1844 23.547L30.9789 22.6641ZM30.1774 21.8211C29.7935 21.6083 29.3731 21.5546 28.9844 21.575L29.0891 23.5722C29.231 23.5648 29.2477 23.5925 29.2076 23.5703L30.1774 21.8211ZM28.9844 21.575C28.6454 21.5927 28.3032 21.6701 27.9865 21.8393L28.929 23.6033C28.937 23.599 28.9808 23.5779 29.0891 23.5722L28.9844 21.575ZM27.9757 21.8451C27.6587 22.0196 27.397 22.2738 27.2201 22.6028L28.9817 23.5499C28.9762 23.56 28.9674 23.5724 28.956 23.5838C28.9449 23.5949 28.9375 23.5987 28.9399 23.5974L27.9757 21.8451ZM27.2079 22.6264C27.0354 22.9685 26.9878 23.3328 27.0056 23.6736L29.0029 23.5689C29.0007 23.5266 29.0037 23.505 29.0047 23.4997C29.0054 23.4953 29.0039 23.5065 28.9939 23.5264L27.2079 22.6264ZM27.9519 22.6226L25.5178 22.7502L25.6224 24.7474L28.0566 24.6199L27.9519 22.6226ZM26.5687 23.6965C26.5571 23.4738 26.5956 23.2771 26.6809 23.0913L24.863 22.2573C24.6394 22.7448 24.5433 23.2645 24.5715 23.8012L26.5687 23.6965ZM26.6809 23.0913C26.7713 22.8942 26.9107 22.7042 27.1186 22.5223L25.8013 21.0174C25.4007 21.368 25.0815 21.7811 24.863 22.2573L26.6809 23.0913ZM27.1127 22.5274C27.3171 22.3513 27.5815 22.196 27.9234 22.0728L27.2453 20.1912C26.7067 20.3853 26.2215 20.6553 25.8072 21.0122L27.1127 22.5274ZM27.9334 22.0691C28.2623 21.9466 28.6579 21.8659 29.1314 21.8411L29.0267 19.8438C28.3871 19.8773 27.7863 19.9897 27.2353 20.1949L27.9334 22.0691ZM29.1314 21.8411C29.6789 21.8124 30.1324 21.8813 30.51 22.0223L31.2097 20.1487C30.534 19.8964 29.8003 19.8033 29.0267 19.8438L29.1314 21.8411ZM30.5214 22.0265C30.8818 22.1561 31.1475 22.3534 31.3491 22.6178L32.9398 21.4056C32.4917 20.8175 31.901 20.3973 31.1983 20.1445L30.5214 22.0265ZM31.3524 22.6222C31.5248 22.8459 31.658 23.1796 31.685 23.6943L33.6823 23.5897C33.6395 22.7729 33.4132 22.0197 32.9365 21.4013L31.3524 22.6222ZM31.685 23.6943L31.8702 27.2285L33.8675 27.1239L33.6823 23.5897L31.685 23.6943ZM31.8702 27.2285C31.8983 27.764 31.9523 28.2371 32.0478 28.617L33.9875 28.1294C33.938 27.9328 33.8928 27.6078 33.8675 27.1239L31.8702 27.2285ZM32.0531 28.6372C32.1501 28.9914 32.2845 29.3255 32.4669 29.6265L34.1774 28.59C34.1086 28.4766 34.04 28.3206 33.9822 28.1092L32.0531 28.6372ZM32.3235 29.1606L32.3305 29.2932L34.3277 29.1886L34.3208 29.0559L32.3235 29.1606ZM33.2768 28.2423L30.8192 28.3711L30.9239 30.3683L33.3814 30.2395L33.2768 28.2423ZM31.7538 28.8989C31.6827 28.7657 31.6074 28.5632 31.5446 28.2693L29.5887 28.6871C29.678 29.1049 29.8059 29.4967 29.9893 29.8404L31.7538 28.8989ZM31.545 28.2714C31.4797 27.962 31.4383 27.6459 31.4214 27.3225L29.4241 27.4272C29.4464 27.8527 29.501 28.2721 29.5882 28.6849L31.545 28.2714ZM29.5647 24.2865L29.6506 25.6276L31.6466 25.4997L31.5606 24.1586L29.5647 24.2865ZM30.5963 24.565L29.387 24.6284L29.4917 26.6256L30.7009 26.5623L30.5963 24.565ZM29.387 24.6284C29.0372 24.6467 28.6911 24.7082 28.3697 24.8373L29.1152 26.6932C29.1821 26.6663 29.3005 26.6357 29.4917 26.6256L29.387 24.6284ZM28.3621 24.8404C28.0627 24.9636 27.778 25.1437 27.5459 25.4015L29.0322 26.7398C29.0268 26.7457 29.0444 26.7223 29.1229 26.6901L28.3621 24.8404ZM27.561 25.3852C27.3422 25.6175 27.1833 25.8912 27.0895 26.1956L29.0007 26.7849C29.0049 26.7712 29.0087 26.7652 29.0172 26.7561L27.561 25.3852ZM27.084 26.2142C27.0052 26.4882 26.9801 26.7685 26.9946 27.046L28.9919 26.9413C28.9873 26.8547 28.9967 26.7994 29.0062 26.7663L27.084 26.2142ZM26.9946 27.046C27.0125 27.3871 27.115 27.7161 27.3102 28.0093L28.975 26.9011C28.9799 26.9084 28.9851 26.9187 28.9888 26.9299C28.9923 26.9407 28.9921 26.9457 28.9919 26.9413L26.9946 27.046ZM27.3195 28.0231C27.5144 28.3056 27.7742 28.5196 28.0772 28.6621L28.9281 26.8521C28.9269 26.8515 28.9332 26.8544 28.9428 26.8625C28.9527 26.8708 28.9606 26.8799 28.9657 26.8872L27.3195 28.0231ZM28.0772 28.6621C28.3989 28.8133 28.7385 28.8634 29.0682 28.8462L28.9636 26.8489C28.9348 26.8504 28.9202 26.8483 28.9168 26.8477C28.914 26.8472 28.919 26.8478 28.9281 26.8521L28.0772 28.6621ZM29.0682 28.8462C29.5157 28.8227 29.9577 28.7109 30.3499 28.4643L29.2851 26.7713C29.243 26.7977 29.1506 26.8391 28.9636 26.8489L29.0682 28.8462ZM30.3416 28.4694C30.6679 28.2686 30.9582 28.0071 31.1703 27.6706L29.4782 26.6043C29.4592 26.6345 29.4117 26.6933 29.2933 26.7661L30.3416 28.4694ZM31.1775 27.659C31.356 27.3669 31.5059 26.9936 31.4836 26.5682L29.4863 26.6729C29.4833 26.6161 29.493 26.5795 29.496 26.57C29.4985 26.562 29.4949 26.5769 29.4711 26.6159L31.1775 27.659ZM29.6461 27.1649L30.2844 28.1485L31.9621 27.0597L31.3238 26.0762L29.6461 27.1649ZM30.1911 27.242C30.1249 27.4124 30.0394 27.5975 29.9322 27.7977L31.6955 28.7416C31.8354 28.4803 31.9561 28.2217 32.0554 27.9662L30.1911 27.242ZM29.9372 27.7885C29.861 27.9273 29.7562 28.0701 29.6147 28.2154L31.0478 29.6105C31.3022 29.3492 31.5192 29.063 31.6905 28.7508L29.9372 27.7885ZM29.6243 28.2057C29.5195 28.3105 29.3756 28.4136 29.1764 28.5064L30.0208 30.3194C30.402 30.1419 30.7466 29.9117 31.0382 29.6202L29.6243 28.2057ZM29.1708 28.5091C29.0335 28.574 28.821 28.6322 28.5024 28.6489L28.6071 30.6462C29.1104 30.6198 29.5937 30.5216 30.0264 30.3168L29.1708 28.5091ZM28.5024 28.6489C28.1095 28.6695 27.7779 28.6087 27.49 28.4848L26.6993 30.3219C27.2972 30.5792 27.939 30.6812 28.6071 30.6462L28.5024 28.6489ZM27.4989 28.4887C27.2014 28.3572 26.9769 28.1786 26.8044 27.953L25.2157 29.168C25.6031 29.6745 26.1017 30.0578 26.6905 30.318L27.4989 28.4887ZM26.81 27.9605C26.664 27.7658 26.5741 27.5301 26.5577 27.2175L24.5604 27.3222C24.5958 27.9978 24.8065 28.6225 25.21 29.1605L26.81 27.9605ZM26.5577 27.2175C26.5409 26.898 26.5859 26.6511 26.6653 26.4563L24.813 25.7019C24.6059 26.2105 24.5308 26.7575 24.5604 27.3222L26.5577 27.2175ZM26.6653 26.4563C26.7425 26.2667 26.8657 26.0953 27.056 25.9381L25.7819 24.3965C25.3523 24.7515 25.0223 25.1881 24.813 25.7019L26.6653 26.4563ZM27.0501 25.9429C27.241 25.7876 27.5166 25.6397 27.9093 25.5226L27.3376 23.6061C26.7545 23.78 26.2271 24.0341 25.7878 24.3916L27.0501 25.9429ZM27.9187 25.5197C28.3082 25.3994 28.7969 25.3165 29.3979 25.285L29.2933 23.2877C28.5731 23.3254 27.9138 23.4279 27.3281 23.609L27.9187 25.5197ZM29.3979 25.285L30.615 25.2212L30.5103 23.2239L29.2933 23.2877L29.3979 25.285ZM39.8124 22.2436L40.811 22.1912L40.8089 22.1502L40.8034 22.1095L39.8124 22.2436ZM40.1604 28.8829L40.2127 29.8815L41.2113 29.8292L41.159 28.8305L40.1604 28.8829ZM37.7184 29.0109L36.7198 29.0632L36.7721 30.0618L37.7707 30.0095L37.7184 29.0109ZM37.276 20.5693L37.2237 19.5707L36.225 19.623L36.2774 20.6217L37.276 20.5693ZM39.5697 20.4491L40.5607 20.3151L40.4372 19.4023L39.5174 19.4505L39.5697 20.4491ZM39.6037 24.3824L39.6817 25.3794L40.6534 25.3034L40.6024 24.3301L39.6037 24.3824ZM38.996 24.4299L37.9974 24.4822L38.0511 25.5068L39.0739 25.4269L38.996 24.4299ZM39.7362 21.387L38.9278 20.7983L38.9269 20.7997L39.7362 21.387ZM40.7309 20.5134L40.2649 19.6286L40.2606 19.6309L40.7309 20.5134ZM44.0232 20.7868L43.3231 21.5008L43.3306 21.5083L43.3384 21.5156L44.0232 20.7868ZM44.6216 21.7568L43.6802 22.0939L43.6813 22.0972L44.6216 21.7568ZM45.1691 28.6204L45.2214 29.619L46.2201 29.5667L46.1677 28.568L45.1691 28.6204ZM42.7193 28.7488L41.7207 28.8011L41.773 29.7997L42.7717 29.7474L42.7193 28.7488ZM41.7891 22.1947L41.4533 23.1367L41.4624 23.1399L41.7891 22.1947ZM40.3721 22.3237L40.8916 23.1782L40.9 23.1731L40.9083 23.1678L40.3721 22.3237ZM39.6446 23.5197L38.6605 23.3419L38.6589 23.3511L38.6574 23.3603L39.6446 23.5197ZM38.8138 22.2959L39.1617 28.9352L41.159 28.8305L40.811 22.1912L38.8138 22.2959ZM40.108 27.8843L37.6661 28.0122L37.7707 30.0095L40.2127 29.8815L40.108 27.8843ZM38.717 28.9585L38.2746 20.517L36.2774 20.6217L36.7198 29.0632L38.717 28.9585ZM37.3283 21.5679L39.6221 21.4477L39.5174 19.4505L37.2237 19.5707L37.3283 21.5679ZM38.5787 20.5831L38.8214 22.3776L40.8034 22.1095L40.5607 20.3151L38.5787 20.5831ZM39.5258 23.3854L38.9181 23.4329L39.0739 25.4269L39.6817 25.3794L39.5258 23.3854ZM39.9946 24.3776C39.9656 23.8236 40.0094 23.3524 40.11 22.9541L38.171 22.464C38.0125 23.091 37.9599 23.7671 37.9974 24.4822L39.9946 24.3776ZM40.11 22.9541C40.2134 22.5451 40.3637 22.225 40.5456 21.9743L38.9269 20.7997C38.5737 21.2864 38.3268 21.8476 38.171 22.464L40.11 22.9541ZM40.5446 21.9757C40.7322 21.718 40.9501 21.5298 41.2013 21.3959L40.2606 19.6309C39.7304 19.9136 39.2852 20.3077 38.9278 20.7983L40.5446 21.9757ZM41.1969 21.3982C41.4531 21.2633 41.7523 21.1796 42.1104 21.1609L42.0058 19.1636C41.3861 19.1961 40.8005 19.3466 40.2649 19.6286L41.1969 21.3982ZM42.1104 21.1609C42.409 21.1452 42.6597 21.1753 42.8717 21.2371L43.4314 19.317C42.9761 19.1843 42.4978 19.1378 42.0058 19.1636L42.1104 21.1609ZM42.8717 21.2371C43.0477 21.2884 43.1937 21.374 43.3231 21.5008L44.7233 20.0728C44.3578 19.7144 43.9228 19.4602 43.4314 19.317L42.8717 21.2371ZM43.3384 21.5156C43.4496 21.62 43.5735 21.7961 43.6802 22.0939L45.5631 21.4197C45.3765 20.8985 45.1014 20.4278 44.708 20.0581L43.3384 21.5156ZM43.6813 22.0972C43.7837 22.3799 43.8616 22.7792 43.89 23.3207L45.8872 23.216C45.8524 22.5508 45.7523 21.9424 45.5619 21.4165L43.6813 22.0972ZM43.89 23.3207L44.1705 28.6727L46.1677 28.568L45.8872 23.216L43.89 23.3207ZM45.1168 27.6218L42.667 27.7501L42.7717 29.7474L45.2214 29.619L45.1168 27.6218ZM43.718 28.6964L43.4371 23.3366L41.4398 23.4413L41.7207 28.8011L43.718 28.6964ZM43.4371 23.3366C43.4149 22.9135 43.3358 22.46 43.1117 22.0748L41.3828 23.0803C41.376 23.0685 41.3881 23.0852 41.4034 23.1501C41.4184 23.214 41.4329 23.3087 41.4398 23.4413L43.4371 23.3366ZM43.1117 22.0748C42.8878 21.6898 42.5489 21.3993 42.1158 21.2496L41.4624 23.1399C41.4512 23.136 41.4308 23.1263 41.4099 23.1088C41.3894 23.0917 41.3817 23.0782 41.3828 23.0803L43.1117 22.0748ZM42.1249 21.2528C41.7752 21.1281 41.4048 21.0961 41.0441 21.115L41.1488 23.1123C41.3289 23.1029 41.4203 23.1249 41.4533 23.1367L42.1249 21.2528ZM41.0441 21.115C40.625 21.137 40.2077 21.2434 39.8358 21.4797L40.9083 23.1678C40.9301 23.1539 40.9957 23.1203 41.1488 23.1123L41.0441 21.115ZM39.8525 21.4693C39.5098 21.6777 39.2349 21.9615 39.0338 22.3051L40.7599 23.3154C40.7981 23.25 40.8401 23.2095 40.8916 23.1782L39.8525 21.4693ZM39.0338 22.3051C38.8467 22.6248 38.7268 22.9753 38.6605 23.3419L40.6287 23.6975C40.6594 23.5271 40.7077 23.4045 40.7599 23.3154L39.0338 22.3051ZM38.6574 23.3603C38.6014 23.707 38.5858 24.0661 38.6051 24.4347L40.6024 24.3301C40.5895 24.0849 40.6011 23.869 40.6318 23.6791L38.6574 23.3603ZM54.7725 26.2239L53.7738 26.2762L53.7773 26.3419L53.7893 26.4067L54.7725 26.2239ZM54.2434 16.1284L54.191 15.1297L53.1924 15.1821L53.2448 16.1807L54.2434 16.1284ZM56.6931 16L57.6918 15.9476L57.6394 14.949L56.6408 15.0013L56.6931 16ZM57.3212 27.9835L57.3735 28.9821L58.3721 28.9298L58.3198 27.9312L57.3212 27.9835ZM55.1211 28.0988L54.1379 28.2816L54.2981 29.1433L55.1734 29.0975L55.1211 28.0988ZM49.5076 22.3457L48.5307 22.1318L48.5293 22.1383L49.5076 22.3457ZM50.068 20.9472L49.2304 20.4008L49.2291 20.4029L50.068 20.9472ZM51.059 20.0034L50.5612 19.1362L51.059 20.0034ZM53.7514 19.878L53.2825 20.7613L53.2919 20.7661L53.7514 19.878ZM54.7273 20.7343L53.9199 21.3244L53.9245 21.3306L53.9291 21.3368L54.7273 20.7343ZM55.4308 22.0665L54.4915 22.4096L54.4924 22.4122L55.4308 22.0665ZM55.8862 23.7403L56.8848 23.688L56.8813 23.62L56.8685 23.5531L55.8862 23.7403ZM55.9009 24.0212L56.8977 24.1019L56.903 24.0354L56.8995 23.9688L55.9009 24.0212ZM55.6197 25.671L54.6549 25.4078L54.6525 25.4168L55.6197 25.671ZM55.0577 27.0382L54.2009 26.5225L54.1993 26.5251L55.0577 27.0382ZM54.1685 27.9845L54.7183 28.8197L54.7219 28.8173L54.1685 27.9845ZM51.469 28.1259L51.0507 29.0342L51.0555 29.0364L51.469 28.1259ZM50.4 27.2823L49.6186 27.9063L50.4 27.2823ZM49.6969 25.9579L48.7464 26.2687L48.7494 26.2776L49.6969 25.9579ZM51.9501 25.0653L50.9731 25.2782L50.975 25.2868L50.977 25.2954L51.9501 25.0653ZM52.719 26.3002L52.2086 27.1601L52.2169 27.1651L52.2254 27.1699L52.719 26.3002ZM54.299 26.147L54.9204 26.9305L54.9261 26.926L54.9318 26.9213L54.299 26.147ZM54.9244 24.3462L55.9237 24.3068L55.923 24.2938L54.9244 24.3462ZM54.3936 21.9801L53.6114 22.6031L53.6172 22.6104L53.6232 22.6176L54.3936 21.9801ZM53.8804 21.5923L53.4806 22.5089L53.4904 22.5132L53.5002 22.5172L53.8804 21.5923ZM52.5015 21.7037L53.0833 22.5171L53.0912 22.5114L53.099 22.5056L52.5015 21.7037ZM52.0678 22.235L51.1668 21.8012L51.1628 21.8095L51.1589 21.8179L52.0678 22.235ZM51.8508 23.0208L50.8603 22.883L50.8585 22.8968L51.8508 23.0208ZM55.7711 26.1715L55.242 16.076L53.2448 16.1807L53.7738 26.2762L55.7711 26.1715ZM54.2957 17.127L56.7455 16.9986L56.6408 15.0013L54.191 15.1297L54.2957 17.127ZM55.6945 16.0523L56.3225 28.0359L58.3198 27.9312L57.6918 15.9476L55.6945 16.0523ZM57.2688 26.9849L55.0687 27.1002L55.1734 29.0975L57.3735 28.9821L57.2688 26.9849ZM56.1042 27.916L55.7556 26.0411L53.7893 26.4067L54.1379 28.2816L56.1042 27.916ZM50.3957 24.2158L50.3872 24.052L48.3899 24.1566L48.3985 24.3205L50.3957 24.2158ZM50.3872 24.052C50.3574 23.4844 50.3939 22.9869 50.4859 22.553L48.5293 22.1383C48.3955 22.7697 48.3526 23.4447 48.3899 24.1566L50.3872 24.052ZM50.4844 22.5595C50.5809 22.1191 50.7268 21.769 50.9068 21.4916L49.2291 20.4029C48.8976 20.9137 48.6699 21.496 48.5307 22.1318L50.4844 22.5595ZM50.9055 21.4936C51.083 21.2216 51.2986 21.0189 51.5568 20.8707L50.5612 19.1362C50.0194 19.4471 49.5744 19.8737 49.2304 20.4008L50.9055 21.4936ZM51.5568 20.8707C51.8014 20.7304 52.1095 20.6368 52.5071 20.616L52.4024 18.6187C51.7391 18.6535 51.1167 18.8173 50.5612 19.1362L51.5568 20.8707ZM52.5071 20.616C52.8429 20.5984 53.0901 20.6591 53.2825 20.7612L54.2204 18.9947C53.6618 18.6982 53.0445 18.5851 52.4024 18.6187L52.5071 20.616ZM53.2919 20.7661C53.5159 20.882 53.7262 21.0594 53.9199 21.3244L55.5347 20.1443C55.1777 19.6559 54.7376 19.2623 54.211 18.9898L53.2919 20.7661ZM53.9291 21.3368C54.14 21.6161 54.3306 21.9692 54.4915 22.4096L56.3701 21.7235C56.1534 21.1301 55.875 20.595 55.5254 20.1319L53.9291 21.3368ZM54.4924 22.4122C54.6597 22.8663 54.7978 23.3705 54.9039 23.9275L56.8685 23.5531C56.7444 22.9017 56.5789 22.2901 56.3691 21.7209L54.4924 22.4122ZM54.8876 23.7926L54.9023 24.0735L56.8995 23.9688L56.8848 23.688L54.8876 23.7926ZM54.9042 23.9405C54.8612 24.4718 54.777 24.9602 54.6549 25.4078L56.5844 25.9341C56.7423 25.3553 56.8457 24.7437 56.8977 24.1019L54.9042 23.9405ZM54.6525 25.4168C54.5386 25.8504 54.3854 26.2159 54.2009 26.5225L55.9144 27.5539C56.2097 27.0634 56.4312 26.5174 56.5869 25.9251L54.6525 25.4168ZM54.1993 26.5251C54.0357 26.7987 53.8406 27.0017 53.615 27.1516L54.7219 28.8173C55.2121 28.4916 55.6097 28.0637 55.916 27.5513L54.1993 26.5251ZM53.6186 27.1492C53.4378 27.2683 53.1929 27.355 52.8456 27.3732L52.9503 29.3704C53.5912 29.3368 54.1934 29.1653 54.7183 28.8197L53.6186 27.1492ZM52.8456 27.3732C52.4517 27.3938 52.1387 27.3318 51.8826 27.2155L51.0555 29.0364C51.6436 29.3035 52.2832 29.4054 52.9503 29.3704L52.8456 27.3732ZM51.8874 27.2176C51.6168 27.093 51.3833 26.9111 51.1814 26.6583L49.6186 27.9063C50.0083 28.3944 50.4876 28.7749 51.0507 29.0342L51.8874 27.2176ZM51.1814 26.6583C50.9677 26.3907 50.7853 26.0557 50.6444 25.6382L48.7494 26.2776C48.9543 26.885 49.2406 27.433 49.6186 27.9063L51.1814 26.6583ZM50.6474 25.6471C50.5105 25.2286 50.4239 24.7536 50.3957 24.2158L48.3985 24.3205C48.4346 25.0102 48.5479 25.6616 48.7464 26.2687L50.6474 25.6471ZM50.8241 24.0291L50.8326 24.1929L52.8299 24.0882L52.8213 23.9244L50.8241 24.0291ZM50.8326 24.1929C50.8525 24.572 50.8982 24.9347 50.9731 25.2782L52.9272 24.8524C52.8785 24.6287 52.8449 24.3748 52.8299 24.0882L50.8326 24.1929ZM50.977 25.2954C51.0632 25.66 51.1935 26.0054 51.3791 26.3187L53.0998 25.2993C53.0337 25.1877 52.9711 25.0373 52.9233 24.8352L50.977 25.2954ZM51.3791 26.3187C51.5821 26.6613 51.8571 26.9515 52.2086 27.1601L53.2294 25.4403C53.1932 25.4188 53.1486 25.3816 53.0998 25.2993L51.3791 26.3187ZM52.2254 27.1699C52.6177 27.3926 53.0479 27.4643 53.4673 27.4423L53.3626 25.445C53.3006 25.4483 53.2614 25.4434 53.24 25.439C53.2197 25.4348 53.2127 25.4306 53.2125 25.4305L52.2254 27.1699ZM53.4673 27.4423C53.983 27.4153 54.4935 27.2691 54.9204 26.9305L53.6777 25.3635C53.6539 25.3823 53.575 25.4339 53.3626 25.445L53.4673 27.4423ZM54.9318 26.9213C55.3193 26.6047 55.5834 26.1932 55.74 25.7287L53.8448 25.0897C53.7937 25.2412 53.729 25.3214 53.6663 25.3726L54.9318 26.9213ZM55.74 25.7287C55.8906 25.2818 55.9431 24.8018 55.9236 24.3068L53.9252 24.3855C53.9373 24.6921 53.9017 24.9208 53.8448 25.0897L55.74 25.7287ZM55.923 24.2938L55.8801 23.4746L53.8828 23.5793L53.9258 24.3985L55.923 24.2938ZM55.8801 23.4746C55.8592 23.0758 55.7987 22.6939 55.6878 22.3377L53.7783 22.9325C53.8304 23.0997 53.8689 23.3124 53.8828 23.5793L55.8801 23.4746ZM55.6878 22.3377C55.5754 21.9768 55.4071 21.6363 55.164 21.3426L53.6232 22.6176C53.6697 22.6738 53.7276 22.7699 53.7783 22.9325L55.6878 22.3377ZM55.1758 21.357C54.9327 21.0518 54.6244 20.817 54.2606 20.6674L53.5002 22.5172C53.5415 22.5342 53.5754 22.5579 53.6114 22.6031L55.1758 21.357ZM54.2802 20.6757C53.9067 20.5128 53.5095 20.4618 53.1181 20.4823L53.2228 22.4795C53.3724 22.4717 53.4484 22.4949 53.4806 22.5089L54.2802 20.6757ZM53.1181 20.4823C52.6917 20.5046 52.2697 20.6294 51.9041 20.9018L53.099 22.5056C53.1003 22.5046 53.1055 22.5007 53.1203 22.4958C53.1363 22.4905 53.1685 22.4824 53.2228 22.4795L53.1181 20.4823ZM51.9198 20.8904C51.5863 21.1289 51.3388 21.4438 51.1668 21.8012L52.9688 22.6687C53.0131 22.5767 53.0548 22.5375 53.0833 22.5171L51.9198 20.8904ZM51.1589 21.8179C51.0074 22.1482 50.9126 22.5078 50.8604 22.883L52.8413 23.1587C52.8724 22.9349 52.9223 22.7706 52.9767 22.652L51.1589 21.8179ZM50.8585 22.8968C50.8134 23.2577 50.8035 23.636 50.8241 24.0291L52.8213 23.9244C52.8059 23.6309 52.8147 23.372 52.8431 23.1449L50.8585 22.8968ZM66.6084 21.645L67.6071 21.5927L67.5547 20.5941L66.5561 20.6464L66.6084 21.645ZM66.7082 23.5487L66.7605 24.5473L67.7592 24.495L67.7068 23.4963L66.7082 23.5487ZM62.1675 23.7866L61.1689 23.839L61.2213 24.8376L62.2199 24.7853L62.1675 23.7866ZM62.0678 21.883L62.0154 20.8844L61.0168 20.9367L61.0692 21.9353L62.0678 21.883ZM65.6098 21.6974L65.7096 23.601L67.7068 23.4963L67.6071 21.5927L65.6098 21.6974ZM66.6559 22.55L62.1152 22.788L62.2199 24.7853L66.7605 24.5473L66.6559 22.55ZM63.1662 23.7343L63.0664 21.8307L61.0692 21.9353L61.1689 23.839L63.1662 23.7343ZM62.1201 22.8816L66.6608 22.6437L66.5561 20.6464L62.0154 20.8844L62.1201 22.8816ZM81.1509 23.6288L80.1907 23.3496L80.1888 23.3561L81.1509 23.6288ZM80.2365 25.437L79.4603 24.8064L79.4566 24.8111L80.2365 25.437ZM78.7502 26.6336L79.1926 27.5304L79.1964 27.5285L78.7502 26.6336ZM74.7947 26.8409L74.4445 27.7776L74.4514 27.7801L74.7947 26.8409ZM73.1759 25.807L72.4699 26.5152L72.4741 26.5194L73.1759 25.807ZM71.7994 18.9478L72.7596 19.227L72.7603 19.2247L71.7994 18.9478ZM72.7134 17.1318L71.9372 16.5013L71.9335 16.5059L72.7134 17.1318ZM74.2079 15.9426L74.6475 16.8408L74.6541 16.8376L74.2079 15.9426ZM78.1712 15.7349L77.821 16.6716L77.8279 16.6741L78.1712 15.7349ZM79.774 16.7618L79.0638 17.4658L79.068 17.47L79.774 16.7618ZM80.8807 18.4719L79.954 18.8477L79.9549 18.8499L80.8807 18.4719ZM78.5576 19.3759L77.5968 19.6531L77.5975 19.6556L78.5576 19.3759ZM77.2773 17.6359L76.8518 18.5409L76.8645 18.5467L77.2773 17.6359ZM75.28 17.7405L75.7921 18.5996L75.8042 18.5922L75.28 17.7405ZM74.59 18.4573L73.726 17.9538L73.72 17.9644L74.59 18.4573ZM74.2042 19.6041L73.2196 19.4288L73.2182 19.4373L74.2042 19.6041ZM74.3919 23.1851L73.428 23.4517L73.4318 23.4648L74.3919 23.1851ZM75.6652 24.9412L75.233 25.843L75.2398 25.8462L75.6652 24.9412ZM77.6625 24.8365L77.1448 23.9809L77.1383 23.9849L77.6625 24.8365ZM78.7453 22.9569L77.7607 22.7817L77.7593 22.7902L78.7453 22.9569ZM80.3628 20.8303L80.3893 21.3374L82.3866 21.2328L82.36 20.7256L80.3628 20.8303ZM80.3893 21.3374C80.4298 22.1094 80.3574 22.7762 80.1907 23.3496L82.1112 23.908C82.351 23.0833 82.4366 22.1876 82.3866 21.2328L80.3893 21.3374ZM80.1888 23.3561C80.0236 23.9391 79.7771 24.4166 79.4603 24.8065L81.0127 26.0675C81.519 25.4442 81.8821 24.7162 82.113 23.9015L80.1888 23.3561ZM79.4566 24.8111C79.1413 25.204 78.76 25.5113 78.304 25.7387L79.1964 27.5285C79.9095 27.173 80.519 26.6827 81.0164 26.0629L79.4566 24.8111ZM78.3078 25.7368C77.8638 25.9558 77.3477 26.0891 76.7441 26.1207L76.8487 28.118C77.691 28.0738 78.4775 27.8832 79.1926 27.5304L78.3078 25.7368ZM76.7441 26.1207C76.1405 26.1523 75.6095 26.074 75.138 25.9017L74.4514 27.7801C75.2029 28.0548 76.0063 28.1621 76.8487 28.118L76.7441 26.1207ZM75.1449 25.9042C74.6654 25.725 74.2455 25.457 73.8777 25.0947L72.4741 26.5194C73.0412 27.0781 73.7004 27.4994 74.4445 27.7776L75.1449 25.9042ZM73.8819 25.0988C73.5245 24.7426 73.226 24.2914 72.9954 23.7267L71.1439 24.4828C71.4637 25.2662 71.9027 25.9498 72.4699 26.5152L73.8819 25.0988ZM72.9954 23.7267C72.7696 23.1738 72.628 22.5183 72.5875 21.7463L70.5903 21.851C70.6403 22.8058 70.8192 23.6877 71.1439 24.4828L72.9954 23.7267ZM72.5875 21.7463L72.561 21.2392L70.5637 21.3439L70.5903 21.851L72.5875 21.7463ZM72.561 21.2392C72.5205 20.4672 72.5929 19.8005 72.7596 19.227L70.8391 18.6686C70.5993 19.4933 70.5137 20.389 70.5637 21.3439L72.561 21.2392ZM72.7603 19.2247C72.9313 18.6312 73.1798 18.1484 73.4933 17.7577L71.9335 16.5059C71.4343 17.128 71.0734 17.8557 70.8385 18.6708L72.7603 19.2247ZM73.4896 17.7624C73.8099 17.368 74.1933 17.0631 74.6475 16.8408L73.7683 15.0444C73.0529 15.3945 72.44 15.8824 71.9372 16.5013L73.4896 17.7624ZM74.6541 16.8376C75.1031 16.6137 75.6206 16.4788 76.2214 16.4473L76.1168 14.45C75.2717 14.4943 74.4817 14.6887 73.7617 15.0477L74.6541 16.8376ZM76.2214 16.4473C76.8223 16.4158 77.3511 16.4959 77.821 16.6716L78.5214 14.7982C77.7678 14.5165 76.9618 14.4057 76.1168 14.45L76.2214 16.4473ZM77.8279 16.6741C78.3017 16.8473 78.7106 17.1094 79.0638 17.4658L80.4842 16.0578C79.9234 15.492 79.2637 15.0695 78.5145 14.7957L77.8279 16.6741ZM79.068 17.47C79.4241 17.825 79.7228 18.2777 79.954 18.8477L81.8073 18.096C81.4875 17.3076 81.0484 16.6202 80.48 16.0536L79.068 17.47ZM79.9549 18.8499C80.1807 19.4028 80.3223 20.0584 80.3628 20.8303L82.36 20.7256C82.31 19.7708 82.1311 18.8889 81.8065 18.0938L79.9549 18.8499ZM79.8198 21.3673L79.7924 20.8446L77.7952 20.9492L77.8225 21.4719L79.8198 21.3673ZM79.7924 20.8446C79.7592 20.2099 79.6714 19.6237 79.5177 19.0962L77.5975 19.6556C77.6983 20.0014 77.7679 20.4292 77.7952 20.9492L79.7924 20.8446ZM79.5184 19.0987C79.3669 18.5735 79.1518 18.0931 78.8529 17.6851L77.2396 18.8672C77.3676 19.0419 77.4934 19.2947 77.5968 19.6531L79.5184 19.0987ZM78.8529 17.6851C78.5481 17.2693 78.161 16.9384 77.69 16.725L76.8645 18.5467C76.9919 18.6044 77.1174 18.7005 77.2396 18.8672L78.8529 17.6851ZM77.7027 16.7309C77.2373 16.5121 76.736 16.4282 76.2219 16.4551L76.3265 18.4524C76.5509 18.4406 76.7184 18.4781 76.8518 18.5408L77.7027 16.7309ZM76.2219 16.4551C75.7002 16.4824 75.2 16.6155 74.7559 16.8889L75.8042 18.5922C75.9158 18.5235 76.0784 18.4654 76.3265 18.4524L76.2219 16.4551ZM74.768 16.8816C74.3281 17.1438 73.9832 17.5126 73.726 17.9538L75.454 18.9608C75.5606 18.778 75.6756 18.6689 75.7921 18.5995L74.768 16.8816ZM73.72 17.9644C73.4742 18.3982 73.3148 18.8945 73.2197 19.4288L75.1887 19.7793C75.2548 19.4081 75.3526 19.1399 75.4601 18.9503L73.72 17.9644ZM73.2182 19.4373C73.1275 19.9735 73.1044 20.5616 73.1375 21.1933L75.1347 21.0887C75.1073 20.5657 75.1296 20.1292 75.1902 19.7708L73.2182 19.4373ZM73.1375 21.1933L73.1649 21.716L75.1621 21.6114L75.1347 21.0887L73.1375 21.1933ZM73.1649 21.716C73.1978 22.3436 73.2824 22.9248 73.4281 23.4516L75.3557 22.9186C75.2569 22.5611 75.1892 22.1281 75.1621 21.6114L73.1649 21.716ZM73.4318 23.4648C73.5834 23.9852 73.7976 24.4611 74.092 24.8696L75.7145 23.7001C75.5814 23.5155 75.4548 23.2583 75.352 22.9054L73.4318 23.4648ZM74.092 24.8696C74.3916 25.2852 74.7705 25.6212 75.233 25.8429L76.0975 24.0394C75.9715 23.979 75.8424 23.8775 75.7145 23.7001L74.092 24.8696ZM75.2398 25.8462C75.7112 26.0678 76.2219 26.1481 76.7441 26.1207L76.6394 24.1234C76.3918 24.1364 76.2181 24.0961 76.0907 24.0362L75.2398 25.8462ZM76.7441 26.1207C77.2579 26.0938 77.7482 25.958 78.1866 25.6881L77.1383 23.9849C77.021 24.0571 76.8641 24.1117 76.6394 24.1234L76.7441 26.1207ZM78.1802 25.6921C78.6234 25.4239 78.9705 25.0493 79.2274 24.6004L77.4916 23.607C77.3853 23.7926 77.2678 23.9065 77.1448 23.9809L78.1802 25.6921ZM79.2274 24.6004C79.4796 24.1597 79.6405 23.6601 79.7313 23.1237L77.7593 22.7902C77.6987 23.1483 77.6024 23.4132 77.4916 23.607L79.2274 24.6004ZM79.7298 23.1322C79.8265 22.5887 79.8529 21.9978 79.8198 21.3673L77.8225 21.4719C77.8495 21.9857 77.8252 22.4197 77.7608 22.7817L79.7298 23.1322ZM89.1698 24.5855L88.1906 24.3826L88.1653 24.5044L88.1707 24.6288L89.1698 24.5855ZM90.581 17.7757L90.5286 16.7771L89.7583 16.8175L89.6018 17.5728L90.581 17.7757ZM93.1399 17.6416L94.1042 17.9064L94.4711 16.5705L93.0876 16.643L93.1399 17.6416ZM90.7815 26.2299L90.8338 27.2286L91.5547 27.1908L91.7458 26.4947L90.7815 26.2299ZM89.2446 26.3105L88.2455 26.3538L88.2892 27.3619L89.2969 27.3091L89.2446 26.3105ZM87.6787 17.9278L88.6317 17.625L88.3978 16.8888L87.6264 16.9292L87.6787 17.9278ZM89.7865 24.561L90.7847 24.4996L90.7771 24.3761L90.7396 24.2581L89.7865 24.561ZM89.8921 26.2766L89.9444 27.2752L90.9522 27.2224L90.8902 26.2151L89.8921 26.2766ZM88.3551 26.3571L87.4238 26.7213L87.6867 27.3935L88.4075 27.3557L88.3551 26.3571ZM85.1119 18.0623L85.0596 17.0637L83.6761 17.1362L84.1806 18.4265L85.1119 18.0623ZM90.149 24.7884L91.5602 17.9786L89.6018 17.5728L88.1906 24.3826L90.149 24.7884ZM90.6333 18.7744L93.1923 18.6402L93.0876 16.643L90.5286 16.7771L90.6333 18.7744ZM92.1756 17.3768L89.8172 25.9651L91.7458 26.4947L94.1042 17.9064L92.1756 17.3768ZM90.7292 25.2313L89.1922 25.3119L89.2969 27.3091L90.8338 27.2286L90.7292 25.2313ZM90.2436 26.2672L90.1689 24.5422L88.1707 24.6288L88.2455 26.3538L90.2436 26.2672ZM86.7257 18.2307L88.8335 24.8638L90.7396 24.2581L88.6317 17.625L86.7257 18.2307ZM88.7884 24.6224L88.894 26.338L90.8902 26.2151L90.7847 24.4996L88.7884 24.6224ZM89.8398 25.2779L88.3028 25.3585L88.4075 27.3557L89.9444 27.2752L89.8398 25.2779ZM89.2865 25.9929L86.0432 17.6982L84.1806 18.4265L87.4238 26.7213L89.2865 25.9929ZM85.1642 19.061L87.731 18.9265L87.6264 16.9292L85.0596 17.0637L85.1642 19.061ZM98.3382 24.7856L97.6535 25.5146L97.6638 25.524L98.3382 24.7856ZM97.9216 18.4784L97.1332 17.8632L97.1326 17.864L97.9216 18.4784ZM99.1376 17.4994L99.578 18.3973L99.5858 18.3933L99.1376 17.4994ZM102.444 17.2948L102.104 18.2352L102.113 18.2384L102.444 17.2948ZM103.674 18.0675L102.961 18.7688L102.966 18.7739L103.674 18.0675ZM104.475 19.3319L103.542 19.6917L103.547 19.7031L104.475 19.3319ZM104.874 22.0179L104.926 23.0165L105.925 22.9642L105.873 21.9655L104.874 22.0179ZM98.071 22.3744L97.0723 22.4267L97.1247 23.4254L98.1233 23.373L98.071 22.3744ZM97.9888 20.8062L97.9364 19.8076L96.9378 19.8599L96.9902 20.8586L97.9888 20.8062ZM102.405 20.5748L102.457 21.5734L103.456 21.5211L103.403 20.5225L102.405 20.5748ZM102.19 19.616L101.307 20.0846L101.311 20.093L101.316 20.1012L102.19 19.616ZM101.695 19.1256L101.216 20.0035L101.229 20.0107L101.243 20.0174L101.695 19.1256ZM99.7333 19.7604L98.824 19.3441L98.8204 19.3521L99.7333 19.7604ZM99.525 20.5614L100.518 20.6825L100.518 20.6795L99.525 20.5614ZM100.767 23.8056L100.407 24.7387L100.767 23.8056ZM102.699 23.6496L103.132 24.5509L103.143 24.5453L102.699 23.6496ZM103.567 22.9L104.284 22.2033L103.453 21.3474L102.756 22.3154L103.567 22.9ZM104.774 24.1432L105.627 24.6658L106.033 24.0037L105.492 23.4465L104.774 24.1432ZM104.087 24.9068L104.726 25.676L104.728 25.6743L104.087 24.9068ZM101.501 24.8233C100.936 24.8529 100.46 24.7879 100.058 24.6504L99.4102 26.5426C100.092 26.7759 100.829 26.8612 101.605 26.8205L101.501 24.8233ZM100.058 24.6504C99.6346 24.5055 99.2915 24.302 99.0125 24.0472L97.6638 25.524C98.1626 25.9795 98.7501 26.3166 99.4102 26.5426L100.058 24.6504ZM99.0227 24.0567C98.7353 23.7868 98.511 23.4727 98.3462 23.1075L96.5231 23.9298C96.7951 24.5327 97.173 25.0632 97.6536 25.5145L99.0227 24.0567ZM98.3462 23.1075C98.1819 22.7432 98.085 22.3429 98.0616 21.8977L96.0644 22.0023C96.0999 22.6806 96.2508 23.326 96.5231 23.9298L98.3462 23.1075ZM98.0616 21.8977L98.0461 21.6012L96.0488 21.7059L96.0644 22.0023L98.0616 21.8977ZM98.0461 21.6012C98.018 21.0659 98.0684 20.5901 98.1855 20.166L96.2576 19.6337C96.0766 20.2892 96.0109 20.9825 96.0488 21.7059L98.0461 21.6012ZM98.1855 20.166C98.3025 19.742 98.48 19.3889 98.7105 19.0929L97.1326 17.864C96.7279 18.3836 96.4386 18.9781 96.2576 19.6337L98.1855 20.166ZM98.7099 19.0937C98.9358 18.8042 99.2205 18.5725 99.578 18.3972L98.6973 16.6016C98.0784 16.9051 97.5524 17.3261 97.1332 17.8632L98.7099 19.0937ZM99.5858 18.3933C99.9308 18.2203 100.356 18.1084 100.881 18.0808L100.777 16.0836C100.023 16.1231 99.3201 16.2892 98.6894 16.6055L99.5858 18.3933ZM100.881 18.0808C101.369 18.0552 101.771 18.1148 102.104 18.2352L102.784 16.3545C102.16 16.1286 101.485 16.0464 100.777 16.0836L100.881 18.0808ZM102.113 18.2384C102.453 18.3578 102.731 18.5349 102.961 18.7688L104.386 17.3662C103.933 16.9057 103.391 16.5677 102.775 16.3513L102.113 18.2384ZM102.966 18.7739C103.198 19.0068 103.393 19.3061 103.542 19.6917L105.408 18.9722C105.171 18.3558 104.832 17.8121 104.381 17.3611L102.966 18.7739ZM103.547 19.7031C103.697 20.0804 103.795 20.5323 103.823 21.0716L105.82 20.9669C105.783 20.2474 105.649 19.5745 105.404 18.9608L103.547 19.7031ZM103.823 21.0716L103.876 22.0702L105.873 21.9655L105.82 20.9669L103.823 21.0716ZM104.822 21.0192L98.0186 21.3758L98.1233 23.373L104.926 23.0165L104.822 21.0192ZM99.0696 22.3221L98.9874 20.7539L96.9902 20.8586L97.0723 22.4267L99.0696 22.3221ZM98.0411 21.8049L102.457 21.5734L102.352 19.5762L97.9364 19.8076L98.0411 21.8049ZM103.403 20.5225L103.393 20.3352L101.396 20.4399L101.406 20.6272L103.403 20.5225ZM103.393 20.3352C103.371 19.9156 103.272 19.5047 103.064 19.1307L101.316 20.1012C101.35 20.1631 101.387 20.2666 101.396 20.4399L103.393 20.3352ZM103.073 19.1474C102.864 18.7525 102.551 18.4385 102.147 18.2338L101.243 20.0174C101.268 20.0301 101.285 20.0431 101.307 20.0846L103.073 19.1474ZM102.174 18.2477C101.759 18.0214 101.301 17.9571 100.86 17.9802L100.965 19.9775C101.148 19.9679 101.212 20.0014 101.216 20.0035L102.174 18.2477ZM100.86 17.9802C100.425 18.003 99.9858 18.1184 99.6039 18.3885L100.759 20.0213C100.759 20.0211 100.807 19.9857 100.965 19.9775L100.86 17.9802ZM99.6039 18.3885C99.2542 18.6359 98.9972 18.966 98.8241 19.3441L100.643 20.1766C100.685 20.0846 100.726 20.0443 100.759 20.0213L99.6039 18.3885ZM98.8204 19.3521C98.6687 19.6914 98.5776 20.0598 98.532 20.4433L100.518 20.6795C100.545 20.4543 100.593 20.2886 100.646 20.1686L98.8204 19.3521ZM98.5323 20.4404C98.4879 20.8045 98.478 21.1843 98.4986 21.5775L100.496 21.4728C100.48 21.1795 100.489 20.9168 100.518 20.6825L98.5323 20.4404ZM98.4986 21.5775L98.5141 21.874L100.511 21.7693L100.496 21.4728L98.4986 21.5775ZM98.5141 21.874C98.536 22.2914 98.6136 22.694 98.7595 23.0719L100.625 22.3518C100.566 22.1981 100.524 22.0072 100.511 21.7693L98.5141 21.874ZM98.7595 23.0719C98.9066 23.4531 99.12 23.7984 99.4085 24.0896L100.829 22.682C100.754 22.6063 100.683 22.5024 100.625 22.3518L98.7595 23.0719ZM99.4085 24.0896C99.6934 24.3772 100.03 24.5935 100.407 24.7387L101.126 22.8725C101.003 22.8249 100.908 22.7612 100.829 22.682L99.4085 24.0896ZM100.407 24.7387C100.808 24.8934 101.233 24.9468 101.662 24.9243L101.558 22.927C101.363 22.9373 101.225 22.9107 101.126 22.8725L100.407 24.7387ZM101.662 24.9243C102.177 24.8973 102.67 24.7732 103.132 24.5508L102.265 22.7484C102.046 22.8538 101.813 22.9137 101.558 22.927L101.662 24.9243ZM103.143 24.5453C103.64 24.2987 104.052 23.9375 104.378 23.4846L102.756 22.3154C102.605 22.5238 102.439 22.6623 102.254 22.7539L103.143 24.5453ZM102.85 23.5967L104.057 24.8399L105.492 23.4465L104.284 22.2033L102.85 23.5967ZM103.922 23.6206C103.834 23.7644 103.685 23.9395 103.446 24.1393L104.728 25.6743C105.088 25.3732 105.398 25.0393 105.627 24.6658L103.922 23.6206ZM103.448 24.1375C103.248 24.3038 102.984 24.4605 102.64 24.5971L103.377 26.4561C103.881 26.2561 104.336 25.9997 104.726 25.676L103.448 24.1375ZM102.64 24.5971C102.334 24.7182 101.959 24.7992 101.501 24.8233L101.605 26.8205C102.239 26.7873 102.834 26.6715 103.377 26.4561L102.64 24.5971ZM111.54 18.6488L112.538 18.5964L112.536 18.5588L112.532 18.5215L111.54 18.6488ZM111.879 25.1243L111.931 26.1229L112.93 26.0706L112.878 25.0719L111.879 25.1243ZM109.445 25.2518L108.446 25.3042L108.499 26.3028L109.497 26.2505L109.445 25.2518ZM109.003 16.8103L108.95 15.8117L107.952 15.864L108.004 16.8626L109.003 16.8103ZM111.288 16.6905L112.28 16.5632L112.162 15.6433L111.236 15.6919L111.288 16.6905ZM113.953 16.4882L114.953 16.4531L114.927 15.733L114.236 15.5291L113.953 16.4882ZM114.033 18.7606L113.937 19.7559L115.073 19.8659L115.033 18.7254L114.033 18.7606ZM113.626 18.7429L113.585 19.742L113.6 19.7426L113.616 19.7428L113.626 18.7429ZM112.39 18.9015L112.749 19.8349L112.762 19.8298L112.39 18.9015ZM111.846 19.2586L111.114 18.5765L111.108 18.583L111.102 18.5895L111.846 19.2586ZM111.546 19.8219L112.508 20.0951L112.51 20.088L111.546 19.8219ZM111.476 20.5688L111.083 21.4881L112.559 22.1201L112.475 20.5165L111.476 20.5688ZM111.004 20.3667L110.005 20.419L110.038 21.0409L110.61 21.286L111.004 20.3667ZM111.501 17.6025L112.379 18.0813L112.382 18.0753L111.501 17.6025ZM110.541 18.7011L110.88 25.1766L112.878 25.0719L112.538 18.5964L110.541 18.7011ZM111.827 24.1256L109.393 24.2532L109.497 26.2505L111.931 26.1229L111.827 24.1256ZM110.444 25.1995L110.001 16.758L108.004 16.8626L108.446 25.3042L110.444 25.1995ZM109.055 17.8089L111.341 17.6891L111.236 15.6919L108.95 15.8117L109.055 17.8089ZM110.297 16.8178L110.548 18.776L112.532 18.5215L112.28 16.5632L110.297 16.8178ZM112.954 16.5234L113.034 18.7958L115.033 18.7254L114.953 16.4531L112.954 16.5234ZM114.13 17.7653C113.985 17.7512 113.817 17.7447 113.636 17.7429L113.616 19.7428C113.768 19.7443 113.872 19.7497 113.937 19.7559L114.13 17.7653ZM113.667 17.7437C113.48 17.736 113.303 17.7349 113.143 17.7433L113.248 19.7406C113.327 19.7364 113.437 19.736 113.585 19.742L113.667 17.7437ZM113.143 17.7433C112.751 17.7638 112.37 17.8324 112.018 17.9732L112.762 19.8298C112.86 19.7905 113.015 19.7528 113.248 19.7406L113.143 17.7433ZM112.031 17.9681C111.687 18.1004 111.373 18.2992 111.114 18.5765L112.577 19.9407C112.605 19.9109 112.653 19.8716 112.749 19.8349L112.031 17.9681ZM111.102 18.5895C110.849 18.8711 110.68 19.2017 110.583 19.5558L112.51 20.088C112.535 19.9976 112.566 19.9526 112.589 19.9277L111.102 18.5895ZM110.585 19.5487C110.486 19.8939 110.458 20.2564 110.477 20.6211L112.475 20.5165C112.464 20.3195 112.483 20.184 112.508 20.0951L110.585 19.5487ZM111.87 19.6495L111.397 19.4474L110.61 21.286L111.083 21.4881L111.87 19.6495ZM112.003 20.3143C111.977 19.8223 112.003 19.3883 112.072 19.0073L110.104 18.6505C110.003 19.2068 109.973 19.798 110.005 20.419L112.003 20.3143ZM112.072 19.0073C112.141 18.6237 112.248 18.32 112.378 18.0813L110.623 17.1237C110.372 17.583 110.204 18.0969 110.104 18.6505L112.072 19.0073ZM112.382 18.0753C112.507 17.8417 112.648 17.6895 112.795 17.5875L111.652 15.9458C111.215 16.25 110.874 16.655 110.619 17.1297L112.382 18.0753ZM112.795 17.5875C112.921 17.4998 113.076 17.4417 113.291 17.4305L113.186 15.4332C112.631 15.4623 112.11 15.6274 111.652 15.9458L112.795 17.5875ZM113.291 17.4305C113.374 17.4261 113.462 17.4267 113.555 17.4329L113.689 15.4374C113.52 15.4261 113.353 15.4245 113.186 15.4332L113.291 17.4305ZM113.555 17.4329C113.595 17.4356 113.625 17.4392 113.645 17.4425C113.666 17.4458 113.673 17.4482 113.67 17.4474L114.236 15.5291C114.054 15.4754 113.867 15.4494 113.689 15.4374L113.555 17.4329Z" fill="#1C65F3" fill-opacity="0.25"/>
<path d="M10.8668 31.9827L10.8145 30.9841L9.81585 31.0364L9.86818 32.0351L10.8668 31.9827ZM114.66 26.5431L115.659 26.4908L115.607 25.4922L114.608 25.5445L114.66 26.5431ZM114.701 27.3233L114.754 28.322L115.752 28.2696L115.7 27.271L114.701 27.3233ZM10.9077 32.7629L9.90907 32.8152L9.96141 33.8139L10.96 33.7615L10.9077 32.7629ZM10.9192 32.9814L114.713 27.5418L114.608 25.5445L10.8145 30.9841L10.9192 32.9814ZM113.662 26.5955L113.703 27.3757L115.7 27.271L115.659 26.4908L113.662 26.5955ZM114.649 26.3247L10.8554 31.7643L10.96 33.7615L114.754 28.322L114.649 26.3247ZM11.9063 32.7106L11.8654 31.9304L9.86818 32.0351L9.90907 32.8152L11.9063 32.7106Z" fill="#1C65F3" fill-opacity="0.25"/>
<rect x="5.5" y="5.5" width="113.852" height="33.4169" rx="1.5" stroke="#1845C6"/>
<rect x="1" y="1" width="122.852" height="42.4169" rx="1" stroke="#1845C6" stroke-width="2"/>
</svg>