<svg xmlns="http://www.w3.org/2000/svg" width="8" height="26" viewBox="0 0 8 26" fill="none">
<path d="M4 9.48438C5.94336 9.48438 7.51562 11.0566 7.51562 13C7.51562 14.9434 5.94336 16.5156 4 16.5156C2.05664 16.5156 0.484375 14.9434 0.484375 13C0.484375 11.0566 2.05664 9.48438 4 9.48438ZM0.484375 4.40625C0.484375 6.34961 2.05664 7.92188 4 7.92188C5.94336 7.92188 7.51562 6.34961 7.51562 4.40625C7.51562 2.46289 5.94336 0.890625 4 0.890625C2.05664 0.890625 0.484375 2.46289 0.484375 4.40625ZM0.484375 21.5938C0.484375 23.5371 2.05664 25.1094 4 25.1094C5.94336 25.1094 7.51562 23.5371 7.51562 21.5938C7.51562 19.6504 5.94336 18.0781 4 18.0781C2.05664 18.0781 0.484375 19.6504 0.484375 21.5938Z" fill="#1D218B"/>
</svg>