<svg xmlns="http://www.w3.org/2000/svg" width="36" height="36" viewBox="0 0 36 36" fill="none">
<mask id="mask0_513_241" style="mask-type:luminance" maskUnits="userSpaceOnUse" x="0" y="0" width="36" height="36">
<path d="M36 0.5H0V35.5H36V0.5Z" fill="white"/>
</mask>
<g mask="url(#mask0_513_241)">
<mask id="mask1_513_241" style="mask-type:luminance" maskUnits="userSpaceOnUse" x="0" y="0" width="36" height="36">
<path d="M36 18C36 8.33497 27.9411 0.5 18 0.5C8.0589 0.5 0 8.33497 0 18C0 27.665 8.0589 35.5 18 35.5C27.9411 35.5 36 27.665 36 18Z" fill="white"/>
</mask>
<g mask="url(#mask1_513_241)">
<path d="M36 18C36 8.33497 27.9411 0.5 18 0.5C8.0589 0.5 0 8.33497 0 18C0 27.665 8.0589 35.5 18 35.5C27.9411 35.5 36 27.665 36 18Z" fill="#1D218B" fill-opacity="0.15"/>
<path d="M18 18.7004C20.7835 18.7004 23.04 16.5065 23.04 13.8004C23.04 11.0941 20.7835 8.90039 18 8.90039C15.2165 8.90039 12.96 11.0941 12.96 13.8004C12.96 16.5065 15.2165 18.7004 18 18.7004Z" fill="#C0C0C0"/>
<path d="M18.36 45.2998C25.3188 45.2998 30.96 39.8152 30.96 33.0498C30.96 26.2843 25.3188 20.7998 18.36 20.7998C11.4012 20.7998 5.76001 26.2843 5.76001 33.0498C5.76001 39.8152 11.4012 45.2998 18.36 45.2998Z" fill="#C0C0C0"/>
</g>
<path d="M35.64 17.9996C35.64 8.52793 27.7423 0.849609 18 0.849609C8.2577 0.849609 0.360001 8.52793 0.360001 17.9996C0.360001 27.4712 8.2577 35.1496 18 35.1496C27.7423 35.1496 35.64 27.4712 35.64 17.9996Z" stroke="#1D218B"/>
</g>
</svg>