<svg xmlns="http://www.w3.org/2000/svg" width="39" height="38" viewBox="0 0 39 38" fill="none">
<mask id="mask0_105_653" style="mask-type:luminance" maskUnits="userSpaceOnUse" x="1" y="1" width="37" height="36">
<path d="M38 19C38 9.33497 29.7172 1.5 19.5 1.5C9.28276 1.5 1 9.33497 1 19C1 28.665 9.28276 36.5 19.5 36.5C29.7172 36.5 38 28.665 38 19Z" fill="white"/>
</mask>
<g mask="url(#mask0_105_653)">
<path d="M38 19C38 9.33497 29.7172 1.5 19.5 1.5C9.28276 1.5 1 9.33497 1 19C1 28.665 9.28276 36.5 19.5 36.5C29.7172 36.5 38 28.665 38 19Z" fill="#1C65F3" fill-opacity="0.15"/>
<path d="M19.5001 19.7004C22.3609 19.7004 24.6801 17.5065 24.6801 14.8004C24.6801 12.0941 22.3609 9.90039 19.5001 9.90039C16.6392 9.90039 14.3201 12.0941 14.3201 14.8004C14.3201 17.5065 16.6392 19.7004 19.5001 19.7004Z" fill="#C0C0C0"/>
<path d="M19.8699 46.3003C27.022 46.3003 32.8199 40.8157 32.8199 34.0503C32.8199 27.2848 27.022 21.8003 19.8699 21.8003C12.7178 21.8003 6.91992 27.2848 6.91992 34.0503C6.91992 40.8157 12.7178 46.3003 19.8699 46.3003Z" fill="#C0C0C0"/>
</g>
<path d="M37.6301 18.9996C37.6301 9.52793 29.513 1.84961 19.5001 1.84961C9.4872 1.84961 1.37012 9.52793 1.37012 18.9996C1.37012 28.4712 9.4872 36.1496 19.5001 36.1496C29.513 36.1496 37.6301 28.4712 37.6301 18.9996Z" stroke="#1C65F3"/>
</svg>