<svg xmlns="http://www.w3.org/2000/svg" width="22" height="22" viewBox="0 0 22 22" fill="none">
<path d="M20.4492 6.54807L18.6483 8.34893C18.4647 8.53253 18.1678 8.53253 17.9842 8.34893L13.6481 4.01282C13.4645 3.82921 13.4645 3.53233 13.6481 3.34873L15.449 1.54787C16.1795 0.817376 17.367 0.817376 18.1014 1.54787L20.4492 3.89562C21.1836 4.62612 21.1836 5.81367 20.4492 6.54807ZM12.1012 4.89566L1.84286 15.1539L1.0147 19.9002C0.901414 20.5408 1.46003 21.0955 2.10069 20.9861L6.847 20.1541L17.1053 9.89586C17.2889 9.71226 17.2889 9.41537 17.1053 9.23177L12.7692 4.89566C12.5816 4.71206 12.2848 4.71206 12.1012 4.89566ZM5.84696 14.2749C5.6321 14.0601 5.6321 13.7163 5.84696 13.5015L11.8629 7.48561C12.0777 7.27076 12.4215 7.27076 12.6363 7.48561C12.8512 7.70046 12.8512 8.04423 12.6363 8.25908L6.62043 14.2749C6.40557 14.4898 6.06181 14.4898 5.84696 14.2749ZM4.43673 17.5602H6.31182V18.9783L3.79217 19.4197L2.57727 18.2048L3.0187 15.6852H4.43673V17.5602Z" fill="#1D218B"/>
</svg>