<svg xmlns="http://www.w3.org/2000/svg" width="100" height="100" viewBox="0 0 100 100" fill="none">
<path d="M83.9278 18.9735L84.0661 19.2497H84.375H96.875C98.3254 19.2497 99.5 20.4243 99.5 21.8747V28.1247C99.5 34.7529 94.1282 40.1247 87.5 40.1247H81.25H80.75V40.6247V46.8645L56.75 38.2938V9.38058C56.75 7.04333 59.5763 5.87102 61.2324 7.52515C61.2324 7.52521 61.2325 7.52527 61.2326 7.52533L66.5605 12.8533L66.707 12.9997H66.9141H77.3867C78.4545 12.9998 79.5012 13.2972 80.4095 13.8586C81.3178 14.42 82.0518 15.2233 82.5293 16.1784L82.5294 16.1785L83.9278 18.9735ZM13 55.0974V54.7448L12.6679 54.6264C5.59711 52.1059 0.5 45.4144 0.5 37.4997C0.5 34.3247 3.07497 31.7497 6.25 31.7497C9.42503 31.7497 12 34.3247 12 37.4997C12 41.2212 15.0285 44.2497 18.75 44.2497H51.8763L80.75 54.5611V96.8747C80.75 98.3251 79.5754 99.4997 78.125 99.4997H65.625C64.1746 99.4997 63 98.3251 63 96.8747V74.9997V74.4997H62.5H31.25H30.75V74.9997V96.8747C30.75 98.3251 29.5754 99.4997 28.125 99.4997H15.625C14.1746 99.4997 13 98.3251 13 96.8747V55.0974ZM71.375 24.9997C71.375 27.0024 72.9973 28.6247 75 28.6247C77.0027 28.6247 78.625 27.0024 78.625 24.9997C78.625 22.997 77.0027 21.3747 75 21.3747C72.9973 21.3747 71.375 22.997 71.375 24.9997Z" fill="white" stroke="black"/>
</svg>