<svg xmlns="http://www.w3.org/2000/svg" width="25" height="23" viewBox="0 0 25 23" fill="none">
<path d="M25 11.1667C25 10.1411 24.4379 9.25521 23.6111 8.77431V2.13932C23.6111 1.75955 23.3082 0.75 22.2222 0.75C21.9132 0.75 21.6063 0.853299 21.355 1.05469L17.6645 4.00738C15.8108 5.48915 13.4835 6.30556 11.1111 6.30556H2.77778C1.24349 6.30556 0 7.54905 0 9.08333V13.25C0 14.7843 1.24349 16.0278 2.77778 16.0278H4.24045C4.18012 16.4826 4.14583 16.9453 4.14583 17.4167C4.14583 19.1428 4.54774 20.7739 5.25521 22.2318C5.48047 22.6957 5.97222 22.9722 6.48785 22.9722H9.71181C10.8424 22.9722 11.5213 21.6771 10.8359 20.7778C10.1241 19.8437 9.70095 18.6788 9.70095 17.4167C9.70095 16.9345 9.77127 16.4709 9.89236 16.0278H11.1111C13.4835 16.0278 15.8108 16.8442 17.6641 18.326L21.3546 21.2786C21.6007 21.4756 21.9065 21.5831 22.2218 21.5833C23.3034 21.5833 23.6107 20.5946 23.6107 20.1944V13.5595C24.4379 13.0781 25 12.1923 25 11.1667ZM20.8333 17.3047L19.3989 16.1571C17.0551 14.2821 14.1111 13.25 11.1111 13.25V9.08333C14.1111 9.08333 17.0551 8.05121 19.3989 6.17621L20.8333 5.02865V17.3047Z" fill="#1D218B"/>
</svg>