<svg xmlns="http://www.w3.org/2000/svg" width="26" height="26" viewBox="0 0 26 26" fill="none">
<g clip-path="url(#clip0_513_235)">
<path fill-rule="evenodd" clip-rule="evenodd" d="M17.8342 9.48668C17.8342 13.5475 14.3545 16.8394 10.0619 16.8394C5.76943 16.8394 2.28965 13.5475 2.28965 9.48668C2.28965 5.42588 5.76943 2.13394 10.0619 2.13394C14.3545 2.13394 17.8342 5.42588 17.8342 9.48668ZM15.3583 16.9481C13.8451 17.9113 12.0229 18.4734 10.0619 18.4734C4.81552 18.4734 0.562469 14.4499 0.562469 9.48668C0.562469 4.52347 4.81552 0.5 10.0619 0.5C15.3084 0.5 19.5614 4.52347 19.5614 9.48668C19.5614 12.0039 18.4674 14.2795 16.7046 15.9109L24.5625 23.3446L23.3412 24.5L15.3583 16.9481Z" fill="#1D218B"/>
</g>
<defs>
<clipPath id="clip0_513_235">
<rect width="25" height="25" fill="white" transform="translate(0.562469 0.5)"/>
</clipPath>
</defs>
</svg>