<svg xmlns="http://www.w3.org/2000/svg" width="26" height="26" viewBox="0 0 26 26" fill="none">
<g clip-path="url(#clip0_105_647)">
<path fill-rule="evenodd" clip-rule="evenodd" d="M17.6978 9.48668C17.6978 13.5475 14.218 16.8394 9.9255 16.8394C5.63298 16.8394 2.1532 13.5475 2.1532 9.48668C2.1532 5.42588 5.63298 2.13394 9.9255 2.13394C14.218 2.13394 17.6978 5.42588 17.6978 9.48668ZM15.2219 16.9481C13.7087 17.9113 11.8865 18.4734 9.9255 18.4734C4.67908 18.4734 0.426025 14.4499 0.426025 9.48668C0.426025 4.52347 4.67908 0.5 9.9255 0.5C15.1719 0.5 19.425 4.52347 19.425 9.48668C19.425 12.0039 18.331 14.2795 16.5682 15.9109L24.426 23.3446L23.2047 24.5L15.2219 16.9481Z" fill="#1C65F3"/>
</g>
<defs>
<clipPath id="clip0_105_647">
<rect width="25" height="25" fill="white" transform="translate(0.426025 0.5)"/>
</clipPath>
</defs>
</svg>