<svg xmlns="http://www.w3.org/2000/svg" width="35" height="20" viewBox="0 0 35 20" fill="none">
<path d="M7.77778 5H27.2222V15H7.77778V5ZM32.0833 10C32.0833 11.3807 33.3891 12.5 35 12.5V17.5C35 18.8807 33.6942 20 32.0833 20H2.91667C1.30582 20 0 18.8807 0 17.5V12.5C1.61085 12.5 2.91667 11.3807 2.91667 10C2.91667 8.61927 1.61085 7.5 0 7.5V2.5C0 1.11927 1.30582 0 2.91667 0H32.0833C33.6942 0 35 1.11927 35 2.5V7.5C33.3891 7.5 32.0833 8.61927 32.0833 10ZM29.1667 4.58333C29.1667 3.89297 28.5138 3.33333 27.7083 3.33333H7.29167C6.48624 3.33333 5.83333 3.89297 5.83333 4.58333V15.4167C5.83333 16.107 6.48624 16.6667 7.29167 16.6667H27.7083C28.5138 16.6667 29.1667 16.107 29.1667 15.4167V4.58333Z" fill="#1C65F3"/>
</svg>