<svg xmlns="http://www.w3.org/2000/svg" width="30" height="30" viewBox="0 0 30 30" fill="none">
<rect x="0.5" y="0.5" width="29" height="29" rx="14.5" fill="#1D218B"/>
<path d="M6.3399 16.4965L5.32295 15.5055C4.89235 15.0859 4.89235 14.4074 5.32295 13.9923L14.2235 5.3147C14.6541 4.8951 15.3504 4.8951 15.7765 5.3147L24.677 13.9878C25.1077 14.4074 25.1077 15.0859 24.677 15.5011L23.6601 16.492C23.2249 16.9161 22.5149 16.9072 22.0889 16.4742L16.8346 11.0998V23.9287C16.8346 24.5224 16.3445 25 15.7352 25H14.2694C13.6601 25 13.1699 24.5224 13.1699 23.9287V11.0998L7.91113 16.4786C7.48511 16.9161 6.77508 16.925 6.3399 16.4965Z" fill="white"/>
<rect x="0.5" y="0.5" width="29" height="29" rx="14.5" stroke="#1D218B"/>
</svg>