<svg xmlns="http://www.w3.org/2000/svg" width="40" height="40" viewBox="0 0 40 40" fill="none">
<rect x="1" y="1" width="38" height="38" rx="9" fill="white"/>
<path d="M9.17487 21.8706L7.90369 20.6319C7.36544 20.1074 7.36544 19.2593 7.90369 18.7404L19.0294 7.89337C19.5677 7.36888 20.438 7.36888 20.9706 7.89337L32.0963 18.7348C32.6346 19.2593 32.6346 20.1074 32.0963 20.6263L30.8251 21.865C30.2812 22.3951 29.3936 22.3839 28.8611 21.8427L22.2933 15.1247V31.1609C22.2933 31.903 21.6806 32.5 20.919 32.5H19.0867C18.3251 32.5 17.7124 31.903 17.7124 31.1609V15.1247L11.1389 21.8483C10.6064 22.3951 9.71885 22.4063 9.17487 21.8706Z" fill="#1C65F3"/>
<rect x="1" y="1" width="38" height="38" rx="9" stroke="#1C65F3" stroke-width="2"/>
</svg>